# Blender v2.79 (sub 0) OBJ File: 'cha_panzer.blend'
# www.blender.org
mtllib PanzerBlade.mtl
o Cube.015
v -0.048756 0.100619 1.606496
v -0.048756 -0.004448 1.497710
v 0.059198 0.100619 1.606496
v 0.059198 -0.004448 1.497710
v 0.005221 -0.122060 1.543054
v -0.048756 0.100619 -0.390371
v -0.048756 -0.004448 -0.390371
v 0.059198 0.100619 -0.390371
v 0.059198 -0.004448 -0.390371
v 0.005221 -0.122060 -0.390371
v 0.005221 0.100619 1.760623
v 0.005221 -0.122060 1.543054
v 0.005221 0.100619 1.760623
v 0.005221 0.100619 1.760623
v 0.059198 0.100619 1.606496
v -0.048756 0.100619 -0.390371
v 0.059198 0.100619 -0.390371
v 0.005221 -0.122060 -0.390371
v -0.048756 0.100619 1.606496
vt 0.962734 0.639499
vt 0.943786 0.980924
vt 0.943785 0.619312
vt 0.986690 0.980889
vt 0.986117 0.630430
vt 0.943786 0.980924
vt 0.924192 0.619312
vt 0.943785 0.619312
vt -0.056214 0.980924
vt -0.037266 0.639499
vt -0.056215 0.619312
vt -0.013310 0.980889
vt -0.013883 0.630430
vt -0.053839 0.589343
vt 0.946161 0.589343
vt 0.933966 0.591402
vt 0.963008 0.980916
vt 0.924192 0.980924
vt -0.036992 0.980916
vn 0.9690 -0.2286 0.0937
vn 1.0000 0.0000 0.0000
vn 0.9428 -0.2345 0.2367
vn 0.9088 -0.4171 0.0000
vn 0.9180 -0.3672 0.1499
vn 0.0000 1.0000 0.0000
vn -1.0000 0.0000 0.0000
vn -0.9690 -0.2286 0.0937
vn -0.9428 -0.2345 0.2367
vn -0.9088 -0.4171 0.0000
vn -0.9180 -0.3672 0.1499
vn -0.8981 -0.3073 0.3145
vn 0.8981 -0.3073 0.3145
vn 0.9769 -0.2135 0.0000
vn -0.9769 -0.2135 0.0000
usemtl Panzer
s 1
f 4/1/1 17/2/2 15/3/3
f 10/4/4 4/1/1 5/5/5
f 8/6/6 1/7/6 3/8/6
f 16/9/7 2/10/8 19/11/9
f 2/10/8 18/12/10 12/13/11
f 19/11/9 12/13/11 13/14/12
f 5/5/5 15/3/3 14/15/13
f 11/16/6 3/8/6 1/7/6
f 4/1/1 9/17/14 17/2/2
f 10/4/4 9/17/14 4/1/1
f 8/6/6 6/18/6 1/7/6
f 16/9/7 7/19/15 2/10/8
f 2/10/8 7/19/15 18/12/10
f 19/11/9 2/10/8 12/13/11
f 5/5/5 4/1/1 15/3/3
