# Blender v2.79 (sub 0) OBJ File: 'cha_panzer.blend'
# www.blender.org
mtllib PanzerBladeHolder.mtl
o Cube.014_Cube.011
v -0.151725 0.156815 -0.503855
v -0.151725 -0.155926 -0.503855
v -0.151725 0.156815 0.964288
v -0.151725 -0.155926 0.964288
v 0.152408 0.156815 -0.503855
v 0.152408 -0.155926 -0.503855
v 0.152408 0.156815 0.964288
v 0.152408 -0.155926 0.964288
v -0.151725 -0.155926 -0.503855
v -0.151725 -0.155926 -0.503855
v -0.151725 0.156815 -0.503855
v -0.151725 0.156815 -0.503855
v -0.151725 -0.155926 0.964288
v -0.151725 -0.155926 0.964288
v -0.151725 0.156815 0.964288
v -0.151725 0.156815 0.964288
v 0.152408 -0.155926 -0.503855
v 0.152408 -0.155926 -0.503855
v 0.152408 0.156815 -0.503855
v 0.152408 0.156815 -0.503855
v 0.152408 -0.155926 0.964288
v 0.152408 -0.155926 0.964288
v 0.152408 0.156815 0.964288
v 0.152408 0.156815 0.964288
vt 0.733042 0.925683
vt 0.789784 0.659310
vt 0.789784 0.925683
vt 0.844965 0.659310
vt 0.789784 0.925683
vt 0.789784 0.659310
vt 0.901707 0.925683
vt 0.844965 0.659310
vt 0.901707 0.659310
vt 0.844965 0.659310
vt 0.789784 0.602568
vt 0.844965 0.602568
vt 0.844964 0.982425
vt 0.789784 0.925683
vt 0.844964 0.925683
vt 0.677862 0.659310
vt 0.733042 0.925683
vt 0.677861 0.925682
vt 0.733042 0.659310
vt 0.844964 0.925683
vt 0.844964 0.925683
vt 0.789784 0.659310
vt 0.789784 0.982425
vt 0.733042 0.659310
vn 1.0000 0.0000 0.0000
vn 0.0000 1.0000 0.0000
vn -1.0000 0.0000 0.0000
vn 0.0000 0.0000 -1.0000
vn 0.0000 0.0000 1.0000
vn 0.0000 -1.0000 0.0000
usemtl Panzer
s 1
f 21/1/1 19/2/1 23/3/1
f 12/4/2 7/5/2 20/6/2
f 4/7/3 11/8/3 9/9/3
f 1/10/4 18/11/4 10/12/4
f 13/13/5 24/14/5 15/15/5
f 2/16/6 22/17/6 14/18/6
f 21/1/1 17/19/1 19/2/1
f 12/4/2 16/20/2 7/5/2
f 4/7/3 3/21/3 11/8/3
f 1/10/4 5/22/4 18/11/4
f 13/13/5 8/23/5 24/14/5
f 2/16/6 6/24/6 22/17/6
