# Blender v2.79 (sub 0) OBJ File: 'cha_deadman.blend'
# www.blender.org
mtllib gib02.mtl
o Cube.009
v -0.124941 0.114229 0.024758
v 0.080574 0.072075 -0.181231
v 0.100680 0.169279 0.012104
v 0.251184 0.092855 0.050283
v 0.126825 -0.076413 0.173952
v 0.000698 -0.063059 -0.175557
v -0.168225 -0.002753 -0.174992
v -0.267078 -0.047783 -0.005296
v 0.047221 0.078101 0.171136
v -0.092252 -0.115786 0.001094
vt 0.893641 0.624361
vt 0.848604 0.218991
vt 0.999921 0.283006
vt 0.323375 0.217009
vt 0.157402 0.000079
vt 0.505589 0.045933
vt 0.660739 0.195577
vt 0.407324 0.401378
vt 0.845488 0.018699
vt 0.254848 0.624361
vt 0.000079 0.324682
vt 0.244526 0.410111
vt 0.578876 0.512407
vn 0.9669 0.2361 0.0969
vn 0.2140 -0.6623 -0.7180
vn 0.3928 0.3486 -0.8509
vn -0.6152 0.7135 0.3353
vn -0.6004 0.0229 -0.7993
vn -0.9177 -0.2660 0.2950
vn -0.2783 -0.9156 0.2902
vn -0.1740 0.3805 0.9082
vn 0.1372 0.9905 -0.0076
vn 0.3468 -0.6340 0.6912
usemtl gib
s 1
f 4/1/1 6/2/2 2/3/3
f 1/4/4 7/5/5 8/6/6
f 1/4/4 10/7/7 9/8/8
f 8/6/6 7/9/5 10/7/7
f 4/10/1 2/11/3 3/12/9
f 4/1/1 5/13/10 6/2/2
f 2/11/3 1/4/4 3/12/9
f 5/13/10 4/10/1 9/8/8
f 4/10/1 3/12/9 9/8/8
f 3/12/9 1/4/4 9/8/8
f 7/5/5 1/4/4 2/11/3
f 6/2/2 7/9/5 2/3/3
f 10/7/7 5/13/10 9/8/8
f 7/9/5 6/2/2 10/7/7
f 6/2/2 5/13/10 10/7/7
f 8/6/6 10/7/7 1/4/4
