# Blender v2.79 (sub 0) OBJ File: 'cha_deadman.blend'
# www.blender.org
mtllib GibDeadman.mtl
o Cube.006_Cube.007
v 0.119373 -0.006600 0.113111
v -0.119373 -0.006600 0.113111
v 0.068791 0.109623 0.112140
v 0.057326 -0.116132 0.112140
v -0.068791 0.109623 0.112140
v -0.057326 -0.116132 0.112140
v 0.119373 -0.006600 -0.110251
v -0.119373 -0.006600 -0.110251
v 0.068791 0.109623 -0.111222
v 0.057326 -0.116132 -0.111222
v -0.068791 0.109623 -0.111222
v -0.057326 -0.116132 -0.111222
v 0.000000 -0.008361 -0.154373
v 0.000000 -0.002135 0.161868
vt 0.962085 0.955102
vt 0.899062 0.853635
vt 0.962085 0.853635
vt 0.038860 0.851782
vt 0.013327 0.956557
vt 0.013320 0.851782
vt 0.873316 0.954619
vt 0.873640 0.853635
vt 0.987832 0.954619
vt 0.987508 0.853635
vt 0.106331 0.957040
vt 0.102310 0.851782
vt 0.034839 0.957040
vt 0.070585 0.992491
vt 0.899062 0.955102
vt 0.930574 0.990553
vt 0.127843 0.956557
vt 0.932697 0.813394
vt 0.067765 0.815946
vt 0.127850 0.851782
vn -0.4347 -0.7461 -0.5043
vn 0.4352 -0.7540 0.4920
vn -0.4352 -0.7540 0.4920
vn -0.4759 0.7305 0.4898
vn -0.8627 -0.0430 -0.5039
vn -0.8670 -0.0449 0.4962
vn 0.8627 -0.0430 -0.5039
vn 0.8670 -0.0449 0.4962
vn 0.4711 0.7200 -0.5096
vn 0.4759 0.7305 0.4898
vn -0.4711 0.7200 -0.5096
vn 0.0000 -0.0192 -0.9998
vn 0.4347 -0.7461 -0.5043
vn 0.0000 -0.0024 1.0000
usemtl deadman
s 1
f 12/1/1 4/2/2 6/3/3
f 5/4/4 8/5/5 2/6/6
f 4/2/2 7/7/7 1/8/8
f 8/9/5 6/3/3 2/10/6
f 9/11/9 5/4/4 3/12/10
f 11/13/11 9/11/9 13/14/12
f 10/15/13 12/1/1 13/16/12
f 8/5/5 11/13/11 13/14/12
f 9/11/9 7/17/7 13/14/12
f 7/7/7 10/15/13 13/16/12
f 12/1/1 8/9/5 13/16/12
f 6/3/3 4/2/2 14/18/14
f 5/4/4 2/6/6 14/19/14
f 1/20/8 3/12/10 14/19/14
f 4/2/2 1/8/8 14/18/14
f 2/10/6 6/3/3 14/18/14
f 3/12/10 5/4/4 14/19/14
f 7/17/7 3/12/10 1/20/8
f 12/1/1 10/15/13 4/2/2
f 5/4/4 11/13/11 8/5/5
f 4/2/2 10/15/13 7/7/7
f 8/9/5 12/1/1 6/3/3
f 9/11/9 11/13/11 5/4/4
f 7/17/7 9/11/9 3/12/10
