# Blender v2.79 (sub 0) OBJ File: 'atomerfaust_animations.blend'
# www.blender.org
mtllib camera_liner.mtl
o Plane
v -31.842525 170.359146 7.021159
v 31.842525 170.359146 7.021159
v -31.842525 134.555573 7.021157
v 31.842525 134.555573 7.021157
v -31.524046 134.874054 7.021157
v -31.524046 170.040665 7.021159
v 31.524046 170.040665 7.021159
v 31.524046 134.874054 7.021157
v -31.842525 170.359146 7.021159
v 31.842525 170.359146 7.021159
v -31.842525 134.555573 7.021157
v 31.842525 134.555573 7.021157
v -31.524046 134.874054 7.021157
v -31.524046 170.040665 7.021159
v 31.524046 170.040665 7.021159
v 31.524046 134.874054 7.021157
v -31.842525 170.359146 6.935890
v 31.842525 170.359146 6.935890
v -31.842525 134.555573 6.935888
v 31.842525 134.555573 6.935888
v -31.524046 134.874054 6.935888
v -31.524046 170.040665 6.935890
v 31.524046 170.040665 6.935890
v 31.524046 134.874054 6.935888
vn -0.0000 -0.0000 1.0000
vn 1.0000 0.0000 0.0000
vn 0.0000 -1.0000 0.0000
vn 0.0000 1.0000 0.0000
vn 0.0000 0.0000 -1.0000
vn -1.0000 0.0000 0.0000
usemtl None
s off
f 6//1 1//1 3//1 5//1
f 7//1 2//1 1//1 6//1
f 8//1 4//1 2//1 7//1
f 5//1 3//1 4//1 8//1
f 10//2 12//2 20//2 18//2
f 15//3 14//3 22//3 23//3
f 13//4 16//4 24//4 21//4
f 9//4 10//4 18//4 17//4
f 2//1 4//1 12//1 10//1
f 3//1 1//1 9//1 11//1
f 8//1 7//1 15//1 16//1
f 6//1 5//1 13//1 14//1
f 4//1 3//1 11//1 12//1
f 1//1 2//1 10//1 9//1
f 5//1 8//1 16//1 13//1
f 7//1 6//1 14//1 15//1
f 22//5 21//5 19//5 17//5
f 23//5 22//5 17//5 18//5
f 24//5 23//5 18//5 20//5
f 21//5 24//5 20//5 19//5
f 11//6 9//6 17//6 19//6
f 16//6 15//6 23//6 24//6
f 14//2 13//2 21//2 22//2
f 12//3 11//3 19//3 20//3
