# Blender v2.79 (sub 0) OBJ File: 'cha_GruntRifle_animations_EXPORTS.blend'
# www.blender.org
mtllib Muzzleflash.mtl
o Cube.009
v -0.037538 0.000000 0.015193
v 0.000000 0.037538 0.015193
v 0.000000 -0.037538 0.015193
v 0.037538 0.000000 0.015193
v 0.000000 0.000000 0.215193
v 0.000000 -0.037538 0.015193
v -0.037538 0.000000 0.015193
v 0.000000 0.037538 0.015193
v 0.037538 0.000000 0.015193
vt 0.240658 0.954300
vt 0.012071 0.042295
vt 0.240996 0.042295
vt 0.240658 -0.045700
vt 0.240996 -0.957705
vt 0.974033 -0.496223
vt 0.974033 0.503777
vt 0.240658 0.954300
vt 0.240996 0.042295
vt 0.240996 -0.957705
vt 0.240658 -0.045700
vt 0.240658 -0.045700
vt 0.240996 -0.957705
vt 0.012071 0.954300
vn 0.0000 0.0000 -1.0000
vn 0.0000 -0.9828 0.1845
vn 0.9828 0.0000 0.1845
vn 0.0000 0.0000 1.0000
vn 0.0000 0.9828 0.1845
vn -0.9828 0.0000 0.1845
usemtl UV_Grid.001
s 1
f 8/1/1 6/2/1 7/3/1
f 3/4/2 9/5/3 5/6/4
f 5/7/4 2/8/5 1/9/6
f 3/10/2 5/6/4 1/11/6
f 5/6/4 9/12/3 2/13/5
f 8/1/1 4/14/1 6/2/1
