# Blender v2.79 (sub 0) OBJ File: 'weapon_drops_scaling.blend'
# www.blender.org
mtllib Bayonet.mtl
o Cube
v -1.626404 15.950762 -0.495535
v -1.626403 15.950762 0.495533
v 1.714025 15.950762 0.495533
v 1.714024 18.333841 0.495533
v 0.092409 52.976311 0.495533
v 0.092416 19.018185 0.495533
v 1.411473 53.866745 -0.000001
v 0.092408 57.614632 -0.000001
v 1.714024 19.018188 -0.000001
v 1.714018 51.219315 -0.000001
v -1.626410 52.262413 0.495533
v -1.328937 54.389671 0.372496
v 1.714025 15.950762 -0.495535
v 1.714024 18.333841 -0.495535
v 0.092409 52.976315 -0.495535
v -2.269836 15.950762 1.432833
v 1.393711 15.950762 1.432832
v -2.269836 15.090196 1.432833
v 1.384653 15.090193 1.432832
v 0.092416 19.018185 -0.495535
v 5.063184 15.098007 0.912096
v -0.900371 14.139715 1.160157
v 0.731311 14.139715 1.160157
v -0.900370 8.648779 1.428508
v 1.418400 8.648777 1.428508
v 1.875391 14.822605 -0.000001
v 0.415689 3.585026 1.301899
v -0.891041 1.654571 1.214260
v 1.647725 2.126085 1.253101
v 0.037057 0.806442 1.150049
v 1.317454 1.025122 1.180302
v -1.626411 52.262413 -0.495535
v -1.328937 54.389671 -0.372497
v 1.393711 15.950762 -1.432835
v -2.269836 15.090196 -1.432835
v 5.063183 15.098007 -0.912099
v -0.900371 14.139715 -1.160159
v 0.731311 14.139715 -1.160159
v 1.418399 8.648777 -1.428510
v 0.415689 3.585026 -1.301901
v 3.465942 16.091702 -0.000001
v 4.785293 15.804103 -0.000002
v -1.695690 14.139715 -0.000001
v -1.695688 8.648779 -0.000001
v 2.415379 2.228270 -0.000001
v -1.695687 1.346878 -0.000001
v 1.174016 3.585026 -0.000001
v 1.910952 0.398819 -0.000001
v -0.174661 0.004143 -0.000001
v 2.176727 8.648778 -0.000001
v 4.559559 14.388697 -0.000002
v 1.489638 14.139715 -0.000001
v 4.278743 15.108412 -0.000002
v 3.465942 15.334579 -0.000001
v 5.566808 15.807317 -0.000002
v -2.269836 15.950762 -0.000001
v -2.269836 15.090196 -0.000001
v 1.393711 15.950762 -0.000001
v 3.465942 15.713140 0.468408
v 4.529624 15.463381 0.443793
v 3.465942 15.713140 -0.468411
v 4.529624 15.463381 -0.443797
v 5.643174 14.695950 -0.000002
v -2.269836 15.950762 -1.432835
v 1.384652 15.090193 -1.432835
v -0.900370 8.648779 -1.428510
v -0.891042 1.654571 -1.214261
v 1.647724 2.126085 -1.253104
v 0.037057 0.806442 -1.150051
v 1.317453 1.025122 -1.180304
v 1.714024 18.333841 0.495533
v 1.714024 19.018188 -0.000001
v 1.714024 19.018188 -0.000001
v 1.411473 53.866745 -0.000001
v 0.092408 57.614632 -0.000001
v 0.092408 57.614632 -0.000001
v 1.714018 51.219315 -0.000001
v 1.714025 15.950762 0.495533
v -1.626403 15.950762 0.495533
v -1.626410 52.262413 0.495533
v 1.714025 15.950762 -0.495535
v 1.714024 18.333841 -0.495535
v -1.328937 54.389671 0.372496
v -1.328937 54.389671 -0.372497
v -1.626411 52.262413 -0.495535
v -1.626404 15.950762 -0.495535
vt 0.365166 0.640749
vt 0.365166 0.626965
vt 0.369057 0.626965
vt 0.369057 0.640749
vt 0.383979 0.670889
vt 0.378278 0.663390
vt 0.381162 0.655618
vt 0.383888 0.654724
vt 0.374916 0.640749
vt 0.378860 0.640749
vt 0.284879 0.558685
vt 0.272444 0.557245
vt 0.272444 0.548524
vt 0.284879 0.547083
vt 0.280746 0.527543
vt 0.275591 0.511520
vt 0.290917 0.507978
vt 0.280746 0.578192
vt 0.275591 0.594248
vt 0.253895 0.578192
vt 0.482426 0.597790
vt 0.478464 0.597790
vt 0.478464 0.578192
vt 0.415836 0.645517
vt 0.415836 0.662924
vt 0.378277 0.705649
vt 0.383979 0.689805
vt 0.384034 0.707063
vt 0.496030 0.597790
vt 0.496030 0.558685
vt 0.459996 0.664094
vt 0.466612 0.652046
vt 0.470258 0.682296
vt 0.461264 0.678937
vt 0.458205 0.707063
vt 0.456348 0.689697
vt 0.482608 0.687255
vt 0.487294 0.677892
vt 0.491971 0.687255
vt 0.453740 0.660265
vt 0.378277 0.722205
vt 0.373023 0.722205
vt 0.373023 0.705649
vt 0.415836 0.689805
vt 0.445158 0.674548
vt 0.482618 0.668549
vt 0.491961 0.668549
vt 0.272564 0.562168
vt 0.445113 0.655042
vt 0.482426 0.507978
vt 0.478464 0.527543
vt 0.478464 0.507978
vt 0.284879 0.558685
vt 0.357309 0.705649
vt 0.352055 0.705649
vt 0.352054 0.663390
vt 0.357309 0.663299
vt 0.355513 0.640749
vt 0.351473 0.640749
vt 0.351473 0.626965
vt 0.355513 0.626965
vt 0.496030 0.547083
vt 0.496030 0.558685
vt 0.453740 0.643731
vt 0.365166 0.663269
vt 0.415836 0.707063
vt 0.346353 0.689805
vt 0.346353 0.670889
vt 0.314496 0.689805
vt 0.314496 0.662924
vt 0.272564 0.543601
vt 0.253895 0.527543
vt 0.284879 0.547083
vt 0.314496 0.707063
vt 0.272127 0.707063
vt 0.273985 0.689697
vt 0.269068 0.678937
vt 0.270336 0.664094
vt 0.276592 0.643731
vt 0.276592 0.660265
vt 0.263721 0.652046
vt 0.496030 0.507978
vt 0.496030 0.547083
vt 0.260074 0.682296
vt 0.252042 0.552884
vt 0.290917 0.597790
vt 0.285174 0.674548
vt 0.358822 0.617240
vt 0.365166 0.617240
vt 0.361275 0.626965
vt 0.285220 0.655042
vt 0.314496 0.645517
vt 0.346444 0.654724
vt 0.349170 0.655618
vt 0.346298 0.707063
vt 0.361275 0.640749
vt 0.378860 0.626965
vt 0.374916 0.626965
vt 0.365166 0.705649
vt 0.373023 0.663299
vt 0.352055 0.722205
vt 0.496030 0.597790
vt 0.496030 0.609392
vt 0.482426 0.609392
vt 0.478465 0.603591
vt 0.482426 0.597790
vt 0.357309 0.722205
vt 0.371511 0.617240
vt 0.374916 0.617240
vt 0.382322 0.617240
vt 0.355513 0.617240
vt 0.348010 0.617240
vn 0.2349 0.9720 0.0000
vn 0.0877 0.9961 0.0000
vn -0.2794 0.2888 -0.9157
vn 0.3419 0.0217 -0.9395
vn 0.4151 -0.1924 -0.8892
vn 0.3580 -0.3388 -0.8701
vn 0.6048 -0.7964 0.0000
vn 0.9610 -0.2764 0.0000
vn 0.1167 -0.9931 0.0000
vn -0.9977 0.0681 0.0000
vn -0.9638 0.2665 0.0000
vn 0.1527 0.0496 -0.9870
vn 0.3044 0.0774 -0.9494
vn 0.3003 0.0081 -0.9538
vn 0.1527 0.0496 0.9870
vn 0.3044 0.0774 0.9494
vn 0.1453 0.1051 0.9838
vn 0.0984 0.2332 0.9674
vn 0.2805 0.2809 0.9178
vn 0.0926 0.0450 0.9947
vn 0.9995 -0.0312 0.0000
vn 0.5310 -0.0129 -0.8473
vn -0.6829 -0.3161 -0.6586
vn -0.3397 -0.2731 -0.9000
vn -0.8952 -0.4456 0.0000
vn 0.0000 0.0000 1.0000
vn 0.3745 -0.4427 -0.8147
vn 0.6707 -0.7417 0.0000
vn -0.2657 -0.9640 0.0000
vn -0.1538 -0.5624 -0.8124
vn -0.9139 -0.4058 0.0000
vn -0.5022 -0.2500 -0.8278
vn -0.4769 -0.8789 0.0000
vn 0.8187 -0.5743 0.0000
vn 0.0929 -0.0628 0.9937
vn 0.5697 0.1206 -0.8129
vn -0.9633 -0.2683 0.0000
vn -0.7071 0.7071 0.0000
vn -0.5773 0.5773 -0.5773
vn -0.4863 0.0074 -0.8737
vn 0.3661 0.0579 -0.9287
vn 0.0929 -0.0628 -0.9937
vn 0.6618 0.7497 0.0000
vn 0.0050 0.0917 0.9958
vn 0.9562 0.2927 0.0000
vn 0.0984 0.2332 -0.9674
vn 0.0926 0.0450 -0.9947
vn 0.2805 0.2809 -0.9178
vn -0.0088 0.0212 0.9997
vn -0.5773 0.5773 0.5773
vn -0.6829 -0.3161 0.6586
vn 0.3580 -0.3388 0.8701
vn 0.1556 0.6561 0.7384
vn 0.3419 0.0217 0.9395
vn -0.6817 -0.7316 0.0000
vn -0.2794 0.2888 0.9157
vn -1.0000 0.0000 0.0000
vn 0.9791 0.2031 0.0000
vn -0.0339 0.9994 0.0000
vn -1.0000 0.0026 0.0000
vn -0.3397 -0.2731 0.9000
vn 0.4151 -0.1924 0.8892
vn -0.4863 0.0074 0.8737
vn 0.5310 -0.0129 0.8473
vn 0.0050 0.0917 -0.9958
vn 0.1453 0.1051 -0.9838
vn -0.0088 0.0212 -0.9997
vn -0.5022 -0.2500 0.8278
vn -0.1538 -0.5624 0.8124
vn 0.3745 -0.4427 0.8147
vn 0.5697 0.1206 0.8129
vn 0.0000 0.0000 -1.0000
vn -0.9151 0.4033 0.0000
vn 0.3003 0.0081 0.9538
vn 0.3661 0.0579 0.9287
vn 0.1556 0.6561 -0.7384
vn 1.0000 0.0000 0.0000
usemtl mtl_wpn_mega
s 1
f 41/1/1 42/2/2 62/3/3 61/4/4
f 38/5/5 65/6/6 26/7/7 52/8/8
f 26/7/7 65/6/6 61/9/4 54/10/9
f 80/11/10 83/12/11 84/13/11 85/14/10
f 15/15/12 7/16/13 77/17/14
f 5/18/15 74/19/16 75/20/17
f 71/21/18 72/22/19 6/23/20
f 38/5/5 52/8/8 50/24/21 39/25/22
f 35/26/23 37/27/24 43/28/25
f 78/29/26 71/21/18 6/23/20 79/30/26
f 70/31/27 48/32/28 49/33/29 69/34/30
f 46/35/31 67/36/32 69/34/30 49/33/29
f 51/37/33 63/38/34 21/39/35
f 68/40/36 70/31/27 67/36/32
f 57/41/37 56/42/38 64/43/39 35/26/23
f 66/44/40 39/25/22 40/45/41 67/36/32
f 67/36/32 40/45/41 68/40/36
f 63/38/34 36/46/42 55/47/43
f 5/18/15 75/20/17 12/48/44
f 39/25/22 50/24/21 47/49/45 40/45/41
f 82/50/46 20/51/47 73/52/48
f 5/18/15 12/48/44 11/53/49
f 67/36/32 70/31/27 69/34/30
f 16/54/50 18/55/51 19/56/52 17/57/53
f 59/58/54 54/59/9 53/60/55 60/61/56
f 38/5/5 39/25/22 66/44/40 37/27/24
f 80/11/10 85/14/10 1/62/57 2/63/57
f 40/45/41 47/49/45 45/64/58 68/40/36
f 55/47/43 21/39/35 63/38/34
f 58/65/59 17/57/53 41/1/1
f 37/27/24 66/44/40 44/66/60 43/28/25
f 19/56/52 18/55/51 22/67/61 23/68/62
f 23/68/62 22/67/61 24/69/63 25/70/64
f 66/44/40 67/36/32 46/35/31 44/66/60
f 15/15/12 33/71/65 76/72/66
f 57/41/37 35/26/23 43/28/25
f 15/15/12 32/73/67 33/71/65
f 24/69/63 44/74/60 46/75/31 28/76/68
f 28/76/68 30/77/69 31/78/70
f 45/79/58 29/80/71 31/78/70 48/81/28
f 81/82/72 86/83/72 20/51/47 82/50/46
f 15/15/12 76/72/66 7/16/13
f 45/64/58 48/32/28 70/31/27 68/40/36
f 46/75/31 49/84/29 30/77/69 28/76/68
f 8/85/73 84/13/11 83/12/11
f 6/23/20 5/18/15 11/53/49 79/30/26
f 6/23/20 72/22/19 10/86/74 5/18/15
f 20/51/47 86/83/72 32/73/67 15/15/12
f 20/51/47 15/15/12 77/17/14 73/52/48
f 5/18/15 10/86/74 74/19/16
f 28/76/68 29/80/71 27/87/75
f 21/88/35 55/89/43 42/2/2 60/90/56
f 17/57/53 19/56/52 59/58/54
f 25/70/64 27/87/75 47/91/45 50/92/21
f 23/68/62 25/70/64 50/92/21 52/93/8
f 23/68/62 52/93/8 26/94/7 19/56/52
f 27/87/75 29/80/71 45/79/58 47/91/45
f 22/67/61 43/95/25 44/74/60 24/69/63
f 31/78/70 30/77/69 49/84/29 48/81/28
f 42/2/2 41/1/1 59/96/54 60/90/56
f 22/67/61 18/55/51 43/95/25
f 53/97/55 54/10/9 61/9/4 62/98/3
f 58/65/59 56/99/38 16/54/50 17/57/53
f 34/100/76 64/43/39 56/99/38 58/65/59
f 34/100/76 58/65/59 41/1/1
f 18/55/51 57/101/37 43/95/25
f 24/69/63 28/76/68 27/87/75 25/70/64
f 29/80/71 28/76/68 31/78/70
f 65/6/6 38/5/5 37/27/24 35/26/23
f 64/43/39 34/100/76 65/6/6 35/26/23
f 3/102/77 13/103/77 14/104/77 9/105/77 4/106/77
f 18/55/51 16/54/50 56/107/38 57/101/37
f 62/3/3 42/2/2 55/89/43 36/108/42
f 53/97/55 62/98/3 36/109/42 51/110/33
f 34/100/76 41/1/1 61/4/4
f 21/111/35 60/61/56 53/60/55 51/112/33
f 63/38/34 51/37/33 36/46/42
f 54/59/9 59/58/54 19/56/52 26/94/7
f 41/1/1 17/57/53 59/96/54
f 65/6/6 34/100/76 61/9/4
