# Blender v2.79 (sub 0) OBJ File: 'weapon_drops_scaling.blend'
# www.blender.org
mtllib Flamethrower.mtl
o Cylinder.011
v -30.078611 15.819089 -4.571199
v -18.650612 15.819090 -5.714000
v -30.078611 11.860312 -2.285599
v -18.650610 10.870621 -2.857001
v -30.078611 11.860313 2.285601
v -18.650610 10.870621 2.857000
v -30.078611 15.819089 4.571201
v -18.650610 15.819090 5.713999
v -30.078611 19.777864 2.285601
v -18.650610 20.767559 2.856999
v -30.078613 19.777864 -2.285599
v -18.650612 20.767559 -2.857000
v -13.748344 15.819088 -11.524241
v -13.748344 12.221482 -9.447163
v -13.748343 12.221483 -5.293007
v -13.748344 15.819089 -3.215928
v -13.748344 19.416693 -5.293007
v -13.748345 19.416693 -9.447163
v -16.824057 15.819088 -7.370085
v 0.875225 19.416697 -5.293009
v 0.875226 15.819092 -3.215930
v 0.875226 12.221486 -5.293009
v 0.875225 12.221484 -9.447164
v 0.875224 15.819090 -11.524241
v 0.875224 19.416697 -9.447164
v 16.633137 0.194108 1.519702
v 16.633137 0.194108 -1.519702
v 10.883245 13.253528 1.519703
v 10.883245 13.253528 -1.519701
v 21.755396 2.024323 1.519703
v 21.755396 2.024323 -1.519703
v 16.810801 13.253526 1.519703
v -5.655029 13.124340 1.610288
v -5.655028 15.756542 3.129990
v -0.710431 7.509740 11.335063
v -0.710431 10.141942 12.854765
v -11.582583 13.124340 1.610289
v -11.582582 15.756542 3.129990
v -5.749812 6.466352 13.105363
v -5.749812 9.098555 14.625065
v -17.551394 15.819089 -3.216525
v -17.551394 13.033498 -1.608262
v -17.551394 13.033498 1.608261
v -17.551394 15.819090 3.216523
v -17.551394 18.604681 1.608261
v -17.551394 18.604681 -1.608262
v 1.307086 15.819090 -3.216525
v 1.307087 13.033498 -1.608262
v 1.307087 13.033498 1.608261
v 1.307087 15.819090 3.216522
v 1.307088 18.604681 1.608261
v 1.307086 18.604681 -1.608262
v 16.810801 13.253526 -1.519702
v 4.466299 15.819090 -4.394696
v 4.466300 12.013174 -2.197348
v 4.466301 12.013174 2.197347
v 4.466300 15.819090 4.394693
v 4.466300 19.625010 2.197346
v 4.466299 19.625010 -2.197347
v 25.589901 15.819090 -4.394695
v 25.589901 12.013173 -2.197348
v 25.589901 12.013173 2.197347
v 25.589901 15.819090 4.394694
v 25.589901 19.625008 2.197346
v 25.589899 19.625008 -2.197347
v 3.402025 17.483999 -7.328306
v 3.402025 15.896782 -5.661265
v 3.402025 14.265480 -7.230907
v 3.402025 15.848215 -8.896187
v 27.952682 15.848217 -1.670423
v 27.952686 14.265481 -0.005143
v 27.952686 15.896784 1.564499
v 27.952686 17.483999 -0.102543
v -31.933279 15.819089 -0.356260
v -15.921894 16.800680 -8.046759
v -15.921894 14.837494 -8.046756
v -32.458481 16.800673 -6.647537
v -32.458477 14.837485 -6.647535
v -30.882877 15.819082 -5.335376
v -15.925120 15.819088 -6.480251
v 30.541948 17.483999 -7.328306
v 29.898708 15.896784 -5.661265
v 30.541952 14.265480 -7.230907
v 31.399603 15.848215 -8.896187
v 29.898706 15.848215 -1.670423
v 30.541952 14.265480 -0.005143
v 31.399607 15.896782 1.564499
v 30.541952 17.483999 -0.102543
v 31.328331 15.848215 -2.943726
v 32.993614 14.265481 -2.191785
v 34.563255 15.896784 -1.485703
v 32.896214 17.483999 -2.191783
v 31.328331 15.848215 -4.397142
v 32.993614 14.265481 -5.095388
v 34.563255 15.896784 -5.751034
v 32.896210 17.483999 -5.095386
v -3.212587 19.416693 -5.293009
v -1.087091 19.416697 -5.293010
v -3.212587 18.604681 -1.608262
v -1.087092 18.604681 -1.608262
v -1.087091 15.819090 -3.216300
v -3.211709 15.819089 -3.216299
v -15.328501 21.363750 6.386984
v -15.328501 18.618980 7.971677
v -15.328501 15.874209 6.386984
v -15.328500 15.874209 0.088311
v -15.328503 21.363750 3.217597
v -15.208509 20.802031 4.802292
v -17.526266 15.874208 0.088311
v -17.526266 15.874208 6.386984
v -17.526266 18.618979 7.971677
v -17.526266 21.363750 6.386984
v -17.526268 21.363750 3.217598
v 29.937941 15.819089 -0.000001
v 4.504349 15.873620 -7.279166
v -11.481113 19.416693 -5.293009
v -9.355618 19.416697 -5.293009
v -11.481113 18.604681 -1.608262
v -9.355618 18.604681 -1.608262
v -9.355618 15.819090 -3.216299
v -11.480236 15.819089 -3.216299
v -15.208509 18.621578 4.328331
v -15.208509 18.621578 5.276251
v -30.078611 15.819089 -4.571199
v -30.078611 11.860312 -2.285599
v -30.078611 11.860313 2.285601
v -30.078611 15.819089 4.571201
v -30.078611 19.777864 2.285601
v -30.078613 19.777864 -2.285599
v 16.633137 0.194108 -1.519702
v 21.755396 2.024323 -1.519703
v -5.749812 6.466352 13.105363
v -5.749812 9.098555 14.625065
v -0.710431 7.509740 11.335063
v -0.710431 10.141942 12.854765
v 16.633137 0.194108 1.519702
v 21.755396 2.024323 1.519703
v -15.328501 21.363750 6.386984
v -15.328503 21.363750 3.217597
v -15.328501 18.618980 7.971677
v -15.328501 15.874209 6.386984
v -15.328500 15.874209 0.088311
v -15.328500 15.874209 0.088311
v -17.526266 15.874208 6.386984
v -17.526266 18.618979 7.971677
v -17.526266 21.363750 6.386984
v -17.526268 21.363750 3.217598
v -17.526266 15.874208 0.088311
v -17.526266 15.874208 0.088311
vt 0.537316 0.587996
vt 0.537316 0.612957
vt 0.504957 0.587996
vt 0.537316 0.638231
vt 0.504957 0.612907
vt 0.537316 0.662990
vt 0.504957 0.638230
vt 0.537316 0.688475
vt 0.504957 0.662990
vt 0.545549 0.638230
vt 0.537316 0.714056
vt 0.504957 0.688475
vt 0.537316 0.741641
vt 0.504957 0.714056
vt 0.545549 0.688475
vt 0.731860 0.630405
vt 0.744563 0.719806
vt 0.744563 0.630405
vt 0.719158 0.630405
vt 0.731860 0.719806
vt 0.731860 0.719806
vt 0.744563 0.719806
vt 0.725510 0.746561
vt 0.706455 0.719806
vt 0.719158 0.719806
vt 0.731860 0.719806
vt 0.719158 0.719806
vt 0.731860 0.630405
vt 0.719158 0.719806
vt 0.719158 0.630405
vt 0.706455 0.630405
vt 0.719158 0.719806
vt 0.725510 0.746561
vt 0.706455 0.719806
vt 0.731860 0.719806
vt 0.741284 0.535163
vt 0.704311 0.551371
vt 0.741284 0.551371
vt 0.704311 0.505829
vt 0.704311 0.535163
vt 0.741284 0.535163
vt 0.704311 0.551371
vt 0.741284 0.551371
vt 0.741284 0.535163
vt 0.704311 0.551371
vt 0.741284 0.551371
vt 0.704311 0.535163
vt 0.748092 0.505829
vt 0.704311 0.505829
vt 0.696242 0.535163
vt 0.704311 0.535163
vt 0.704311 0.505829
vt 0.704311 0.535163
vt 0.734124 0.619241
vt 0.728978 0.601417
vt 0.734124 0.583592
vt 0.545549 0.714056
vt 0.545549 0.587996
vt 0.545549 0.612932
vt 0.545549 0.662990
vt 0.545549 0.741641
vt 0.611233 0.638230
vt 0.611233 0.688475
vt 0.696242 0.505829
vt 0.704311 0.535163
vt 0.704311 0.505829
vt 0.704311 0.535163
vt 0.741284 0.535163
vt 0.748092 0.505829
vt 0.741284 0.551371
vt 0.611233 0.741641
vt 0.621457 0.714056
vt 0.621457 0.741641
vt 0.611233 0.662990
vt 0.621457 0.688475
vt 0.611233 0.587996
vt 0.621457 0.612932
vt 0.611233 0.612932
vt 0.611233 0.714056
vt 0.621457 0.662990
vt 0.621457 0.638230
vt 0.684051 0.587996
vt 0.684051 0.612907
vt 0.684051 0.714056
vt 0.684051 0.662990
vt 0.684051 0.638230
vt 0.684051 0.741641
vt 0.684051 0.688475
vt 0.700869 0.701265
vt 0.700700 0.625569
vt 0.505549 0.527777
vt 0.588293 0.511749
vt 0.588293 0.527777
vt 0.505549 0.556848
vt 0.588293 0.573774
vt 0.505549 0.573774
vt 0.505549 0.542159
vt 0.588293 0.556848
vt 0.682411 0.553432
vt 0.688155 0.544649
vt 0.702492 0.559677
vt 0.682411 0.565922
vt 0.629621 0.553432
vt 0.677769 0.542023
vt 0.688155 0.574705
vt 0.629621 0.565922
vt 0.677769 0.577331
vt 0.630051 0.577331
vt 0.588293 0.542159
vt 0.623607 0.527777
vt 0.614513 0.511749
vt 0.623607 0.511749
vt 0.623607 0.556848
vt 0.614513 0.573774
vt 0.614513 0.556848
vt 0.623607 0.542159
vt 0.614513 0.542159
vt 0.614513 0.527777
vt 0.605983 0.527777
vt 0.597474 0.542159
vt 0.597474 0.527777
vt 0.605983 0.511749
vt 0.597474 0.511749
vt 0.605983 0.573774
vt 0.597474 0.556848
vt 0.605983 0.556848
vt 0.605983 0.542159
vt 0.597474 0.573774
vt 0.679725 0.507247
vt 0.673916 0.531251
vt 0.673916 0.507247
vt 0.679725 0.531251
vt 0.690170 0.525186
vt 0.663471 0.525186
vt 0.718818 0.574386
vt 0.749917 0.558420
vt 0.718818 0.558420
vt 0.718808 0.574386
vt 0.707318 0.558420
vt 0.718808 0.558420
vt 0.749917 0.574386
vt 0.730340 0.558420
vt 0.749917 0.558420
vt 0.707286 0.574386
vt 0.730340 0.574386
vt 0.661980 0.691480
vt 0.667771 0.711420
vt 0.639081 0.731413
vt 0.703416 0.602026
vt 0.709155 0.582025
vt 0.732105 0.582032
vt 0.720736 0.621906
vt 0.709206 0.621966
vt 0.650450 0.691540
vt 0.646614 0.507247
vt 0.640666 0.531251
vt 0.640666 0.507247
vt 0.646614 0.531251
vt 0.657444 0.525186
vt 0.630744 0.525186
vt 0.692444 0.584427
vt 0.702378 0.579586
vt 0.702378 0.588283
vt 0.662032 0.731420
vt 0.704311 0.505829
vt 0.704311 0.505829
vt 0.748092 0.505829
vt 0.696242 0.505829
vt 0.748092 0.505829
vt 0.696242 0.535163
vt 0.704311 0.551371
vt 0.621457 0.587996
vt 0.505549 0.511749
vt 0.630051 0.542023
vt 0.623607 0.573774
vt 0.749917 0.574386
vt 0.504957 0.741641
vt 0.744415 0.583592
vt 0.749560 0.601417
vt 0.744415 0.619241
vn 0.4365 0.0000 -0.8997
vn 0.4365 -0.7791 -0.4498
vn -0.0995 0.0000 -0.9950
vn 0.4365 -0.7791 0.4498
vn -0.0995 -0.8617 -0.4975
vn 0.4365 0.0000 0.8997
vn -0.0995 -0.8617 0.4975
vn 0.4365 0.7791 0.4498
vn -0.0995 0.0000 0.9950
vn 0.6446 -0.6620 0.3822
vn 0.4365 0.7791 -0.4498
vn -0.0995 0.8617 0.4975
vn -0.0995 0.8617 -0.4975
vn 0.6446 0.6620 0.3822
vn -0.4006 0.7935 -0.4581
vn 0.3748 -0.0007 -0.9271
vn -0.4006 0.0000 -0.9162
vn -0.4006 0.7935 0.4581
vn 0.3707 0.8036 -0.4656
vn -1.0000 0.0000 0.0000
vn -0.4006 0.0000 0.9162
vn -0.4006 -0.7935 -0.4581
vn -0.4006 -0.7935 0.4581
vn 0.3709 -0.8050 0.4631
vn 0.3666 0.8061 0.4646
vn 0.9999 0.0072 0.0120
vn 0.3667 -0.0008 0.9303
vn 0.3749 -0.8025 -0.4641
vn 0.5678 0.2500 0.7842
vn 0.6620 0.2915 -0.6904
vn 0.5678 0.2500 -0.7842
vn -0.6326 -0.2785 0.7227
vn 0.6620 0.2915 0.6904
vn -0.7376 -0.6750 -0.0167
vn -0.6430 0.4751 0.6006
vn -0.7368 0.3516 0.5775
vn 0.5676 0.8041 0.1766
vn 0.6539 -0.4619 -0.5992
vn 0.5680 -0.5533 -0.6092
vn -0.6409 -0.7591 -0.1136
vn 0.3775 -0.4630 0.8019
vn 0.6518 0.7514 0.1024
vn 0.6446 0.6620 -0.3822
vn 0.6446 0.0000 -0.7645
vn 0.6446 -0.6620 -0.3822
vn 0.6446 0.0000 0.7645
vn -0.1883 -0.8505 0.4910
vn -0.1883 0.8505 0.4910
vn 0.3365 -0.9417 0.0000
vn -0.6326 -0.2785 -0.7227
vn -0.7371 -0.3245 -0.5927
vn -0.7371 -0.3245 0.5927
vn -0.1883 0.0000 -0.9821
vn -0.1684 0.8536 -0.4928
vn -0.1684 0.0000 -0.9857
vn -0.1883 0.0000 0.9821
vn -0.1684 0.8536 0.4928
vn -0.1684 -0.8536 -0.4928
vn -0.1883 -0.8505 -0.4910
vn -0.1883 0.8505 -0.4910
vn -0.1684 0.0000 0.9857
vn -0.1684 -0.8536 0.4928
vn 0.3473 0.0000 -0.9377
vn 0.3473 -0.8121 -0.4689
vn 0.3473 0.8121 -0.4689
vn 0.3473 0.0000 0.9377
vn 0.3473 -0.8121 0.4689
vn 0.3473 0.8121 0.4689
vn 1.0000 0.0000 0.0000
vn 0.0000 0.9997 -0.0228
vn -0.3617 0.0238 0.9320
vn 0.0487 0.9857 -0.1614
vn 0.0000 -0.9997 0.0223
vn 0.0000 0.0219 0.9998
vn 0.0000 -0.0233 -0.9997
vn 0.0273 -0.9922 -0.1219
vn -0.5571 -0.7079 -0.4340
vn 0.5783 0.0000 0.8158
vn -0.0143 0.0000 0.9999
vn -0.5571 0.7079 -0.4340
vn -0.0478 -0.8542 -0.5177
vn -0.0478 0.8542 -0.5177
vn 0.0763 0.0000 0.9971
vn 0.3843 -0.0143 -0.9231
vn -0.3526 -0.0260 -0.9354
vn 0.0426 -0.9867 0.1571
vn 0.3789 0.0163 0.9253
vn 0.0300 0.9923 0.1201
vn 0.1450 0.9879 0.0558
vn 0.9236 0.0189 -0.3828
vn 0.1447 0.9877 -0.0587
vn -0.9135 -0.0266 -0.4058
vn -0.9068 -0.0298 0.4204
vn 0.1801 -0.9814 -0.0668
vn 0.1795 -0.9813 0.0692
vn 0.9196 0.0166 0.3923
vn -0.4674 0.8633 0.1903
vn 0.6269 0.7608 0.1676
vn 0.4673 0.8633 0.1903
vn -0.6270 0.7607 0.1676
vn -1.0000 -0.0003 -0.0001
vn 0.0000 -0.8660 0.5000
vn 0.0000 -1.0000 0.0000
vn 0.0000 0.8660 0.5000
vn 0.0000 0.0000 1.0000
vn 0.0000 0.4952 -0.8687
vn 0.0000 0.8646 -0.5024
usemtl mtl_wpn_mega
s 1
f 2/1/1 4/2/2 1/3/3
f 4/2/2 6/4/4 3/5/5
f 6/4/4 8/6/6 126/7/7
f 8/6/6 10/8/8 127/9/9
f 4/2/2 43/10/10 6/4/4
f 10/8/8 12/11/11 128/12/12
f 12/11/11 2/13/1 129/14/13
f 8/6/6 45/15/14 10/8/8
f 18/16/15 24/17/16 13/18/17
f 17/19/18 25/20/19 18/16/15
f 18/21/15 13/22/17 19/23/20
f 16/24/21 17/25/18 19/23/20
f 14/26/22 15/27/23 19/23/20
f 17/25/18 18/21/15 19/23/20
f 15/27/23 16/24/21 19/23/20
f 13/22/17 14/26/22 19/23/20
f 14/28/22 22/29/24 15/30/23
f 16/31/21 20/32/25 17/19/18
f 25/20/19 115/33/26 24/17/16
f 15/30/23 21/34/27 16/31/21
f 13/18/17 23/35/28 14/28/22
f 32/36/29 131/37/30 53/38/31
f 32/36/29 136/39/32 137/40/33
f 23/35/28 115/33/26 22/29/24
f 20/32/25 115/33/26 25/20/19
f 115/33/26 23/35/28 24/17/16
f 115/33/26 20/32/25 21/34/27
f 37/41/34 133/42/35 38/43/36
f 34/44/37 134/45/38 33/46/39
f 132/47/40 37/41/34 33/48/39
f 40/49/41 35/50/41 36/51/41
f 34/44/37 133/52/35 135/53/42
f 11/54/20 124/55/20 125/56/20
f 10/8/8 46/57/43 12/11/11
f 4/2/2 41/58/44 42/59/45
f 6/4/4 44/60/46 8/6/6
f 2/13/1 46/57/43 41/61/44
f 42/59/45 49/62/47 43/10/10
f 44/60/46 51/63/48 45/15/14
f 27/64/49 30/65/49 26/66/49
f 130/67/50 29/68/51 53/69/31
f 130/67/50 28/70/52 29/68/51
f 47/71/53 59/72/54 54/73/55
f 50/74/56 58/75/57 51/63/48
f 47/76/53 55/77/58 48/78/59
f 51/63/48 59/72/54 52/79/60
f 49/62/47 57/80/61 50/74/56
f 48/78/59 56/81/62 49/62/47
f 55/77/58 60/82/63 61/83/64
f 58/75/57 65/84/65 59/72/54
f 56/81/62 63/85/66 57/80/61
f 56/81/62 61/83/64 62/86/67
f 54/73/55 65/84/65 60/87/63
f 57/80/61 64/88/68 58/75/57
f 65/84/65 64/88/68 114/89/69
f 61/83/64 60/82/63 114/90/69
f 41/61/44 52/79/60 47/71/53
f 45/15/14 52/79/60 46/57/43
f 41/58/44 48/78/59 42/59/45
f 43/10/10 50/74/56 44/60/46
f 66/91/70 82/92/71 81/93/72
f 68/94/73 82/95/71 67/96/74
f 69/97/75 83/98/76 68/94/73
f 78/99/77 79/100/78 74/101/79
f 74/101/79 77/102/80 78/99/77
f 76/103/81 79/104/78 78/99/77
f 74/101/79 79/105/78 77/102/80
f 78/99/77 75/106/82 76/103/81
f 75/106/82 79/107/78 80/108/83
f 69/97/75 81/93/72 84/109/84
f 73/110/70 85/111/85 70/112/75
f 71/113/73 85/114/85 86/115/86
f 72/116/74 86/115/86 87/117/87
f 72/116/74 88/118/88 73/110/70
f 92/119/89 95/120/90 96/121/91
f 89/122/92 96/121/91 93/123/93
f 89/124/92 94/125/94 90/126/95
f 90/126/95 95/120/90 91/127/96
f 82/92/71 96/121/91 81/93/72
f 96/121/91 84/109/84 81/93/72
f 84/109/84 94/125/94 83/98/76
f 83/98/76 93/128/93 82/95/71
f 89/124/92 86/115/86 85/114/85
f 90/126/95 87/117/87 86/115/86
f 87/117/87 92/119/89 88/118/88
f 88/118/88 89/122/92 85/111/85
f 64/88/68 63/85/66 114/89/69
f 60/87/63 65/84/65 114/89/69
f 62/86/67 61/83/64 114/90/69
f 63/85/66 62/86/67 114/90/69
f 97/129/97 100/130/98 98/131/99
f 99/132/100 97/129/97 102/133/101
f 98/131/99 100/130/98 101/134/69
f 22/29/24 115/33/26 21/34/27
f 144/135/102 142/136/103 141/137/102
f 146/138/104 140/139/105 138/140/104
f 149/141/106 139/142/107 143/143/106
f 145/144/105 141/137/102 140/139/105
f 147/145/107 138/140/104 139/142/107
f 111/146/20 112/147/20 148/148/20
f 104/149/69 105/150/69 106/151/69
f 107/152/69 103/153/69 104/149/69
f 110/154/20 111/146/20 148/148/20
f 106/151/69 107/152/69 104/149/69
f 116/155/97 119/156/98 117/157/99
f 118/158/100 116/155/97 121/159/101
f 117/157/99 119/156/98 120/160/69
f 108/161/69 123/162/69 122/163/69
f 112/147/20 113/164/20 148/148/20
f 131/165/30 130/67/50 53/69/31
f 134/166/38 132/47/40 33/48/39
f 4/2/2 3/5/5 1/3/3
f 6/4/4 126/7/7 3/5/5
f 8/6/6 127/9/9 126/7/7
f 4/2/2 42/59/45 43/10/10
f 10/8/8 128/12/12 127/9/9
f 8/6/6 44/60/46 45/15/14
f 18/16/15 25/20/19 24/17/16
f 17/19/18 20/32/25 25/20/19
f 14/28/22 23/35/28 22/29/24
f 16/31/21 21/34/27 20/32/25
f 15/30/23 22/29/24 21/34/27
f 13/18/17 24/17/16 23/35/28
f 32/36/29 137/40/33 131/37/30
f 32/36/29 28/167/52 136/39/32
f 37/41/34 132/47/40 133/42/35
f 34/44/37 135/53/42 134/45/38
f 40/49/41 39/168/41 35/50/41
f 34/44/37 38/169/36 133/52/35
f 10/8/8 45/15/14 46/57/43
f 4/2/2 2/1/1 41/58/44
f 6/4/4 43/10/10 44/60/46
f 2/13/1 12/11/11 46/57/43
f 42/59/45 48/78/59 49/62/47
f 44/60/46 50/74/56 51/63/48
f 27/64/49 31/170/49 30/65/49
f 130/67/50 136/171/32 28/70/52
f 47/71/53 52/79/60 59/72/54
f 50/74/56 57/80/61 58/75/57
f 47/76/53 54/172/55 55/77/58
f 51/63/48 58/75/57 59/72/54
f 49/62/47 56/81/62 57/80/61
f 48/78/59 55/77/58 56/81/62
f 55/77/58 54/172/55 60/82/63
f 58/75/57 64/88/68 65/84/65
f 56/81/62 62/86/67 63/85/66
f 56/81/62 55/77/58 61/83/64
f 54/73/55 59/72/54 65/84/65
f 57/80/61 63/85/66 64/88/68
f 41/61/44 46/57/43 52/79/60
f 45/15/14 51/63/48 52/79/60
f 41/58/44 47/76/53 48/78/59
f 43/10/10 49/62/47 50/74/56
f 66/91/70 67/173/74 82/92/71
f 68/94/73 83/98/76 82/95/71
f 69/97/75 84/109/84 83/98/76
f 76/103/81 80/174/83 79/104/78
f 78/99/77 77/102/80 75/106/82
f 75/106/82 77/102/80 79/107/78
f 69/97/75 66/91/70 81/93/72
f 73/110/70 88/118/88 85/111/85
f 71/113/73 70/175/75 85/114/85
f 72/116/74 71/113/73 86/115/86
f 72/116/74 87/117/87 88/118/88
f 92/119/89 91/127/96 95/120/90
f 89/122/92 92/119/89 96/121/91
f 89/124/92 93/128/93 94/125/94
f 90/126/95 94/125/94 95/120/90
f 82/92/71 93/123/93 96/121/91
f 96/121/91 95/120/90 84/109/84
f 84/109/84 95/120/90 94/125/94
f 83/98/76 94/125/94 93/128/93
f 89/124/92 90/126/95 86/115/86
f 90/126/95 91/127/96 87/117/87
f 87/117/87 91/127/96 92/119/89
f 88/118/88 92/119/89 89/122/92
f 97/129/97 99/132/100 100/130/98
f 144/135/102 109/176/103 142/136/103
f 146/138/104 145/144/105 140/139/105
f 149/141/106 147/145/107 139/142/107
f 145/144/105 144/135/102 141/137/102
f 147/145/107 146/138/104 138/140/104
f 116/155/97 118/158/100 119/156/98
f 12/11/11 129/14/13 128/12/12
f 2/13/1 1/177/3 129/14/13
f 125/56/20 5/178/20 11/54/20
f 5/178/20 7/179/20 11/54/20
f 7/179/20 9/180/20 11/54/20
