# Blender v2.79 (sub 0) OBJ File: 'weapon_drops_scaling.blend'
# www.blender.org
mtllib NukeGun.mtl
o Cube.015_Cube.014
v -7.656369 13.929512 -5.714000
v -7.656369 8.981043 -2.857000
v -7.656369 8.981043 2.857000
v -7.656369 13.929512 5.714000
v -7.656369 18.877981 5.714000
v -7.656369 18.877981 -2.856998
v 39.154297 13.853059 5.584460
v 39.154297 13.853059 -5.584462
v 13.321617 15.550576 -11.943999
v 13.321617 15.574306 -5.411790
v 13.321617 22.245810 -5.419536
v 13.321617 22.222076 -11.951743
v -7.219184 17.083286 -10.567604
v -7.219184 17.082983 -6.796222
v -7.219184 20.713102 -6.795932
v -7.219184 20.713404 -10.567311
v 9.358781 22.245810 -5.419536
v 9.358781 15.574306 -5.411790
v 9.358781 15.550576 -11.943999
v 9.358781 22.222076 -11.951743
v -2.170539 15.032164 -4.942808
v -2.170539 16.015162 -4.154717
v 3.735980 15.032164 -4.942808
v 3.735980 16.015162 -4.154717
v 3.740203 17.118305 -7.598597
v 3.740203 18.101307 -6.810506
v -2.166316 18.101307 -6.810506
v -2.166316 17.118305 -7.598597
v 8.919409 13.929512 5.714000
v 8.919409 18.877981 2.857000
v 6.180528 18.877981 5.714000
v 6.422471 17.082983 -6.796222
v 6.422471 17.083286 -10.567604
v 6.422471 20.713404 -10.567311
v 6.422471 20.713102 -6.795932
v 34.687935 8.981044 -2.857001
v 34.687935 13.929515 -5.714002
v 34.687935 8.981043 2.856999
v 34.687935 13.929512 5.714000
v 34.687935 18.877981 -2.857000
v 34.687935 18.877981 2.856999
v 40.546780 4.838924 2.856997
v 40.546780 4.838926 -2.857002
v 41.155758 22.930056 -2.856999
v 41.155758 22.930056 2.857000
v 19.129181 9.001066 -1.426283
v 13.975352 9.001066 -1.426283
v 23.086735 0.121953 -1.426283
v 17.932898 0.121953 -1.426283
v 19.129181 9.001066 1.465770
v 13.975352 9.001066 1.465770
v 23.086735 0.121953 1.465771
v 17.932898 0.121953 1.465771
v 2.541066 10.435214 3.647455
v -2.177887 10.435214 3.647455
v 2.541235 5.995657 11.336990
v -2.177718 5.995656 11.336990
v 2.541069 12.939806 5.093482
v -2.177884 12.939806 5.093482
v 2.541238 8.500249 12.783019
v -2.177716 8.500249 12.783019
v -39.199108 6.879918 -7.090344
v -28.213726 6.879919 -7.090348
v -39.199104 6.868750 7.079171
v -28.213726 6.868752 7.079171
v -39.199108 21.038261 7.090338
v -28.213732 21.038263 7.090338
v -39.199104 21.049433 -7.079177
v -28.213726 21.049433 -7.079177
v -45.288002 16.750254 -2.786771
v -45.288002 16.745857 2.791157
v -45.288002 11.172327 -2.791168
v -45.288002 11.167929 2.786761
v -20.626980 11.859971 -2.099074
v -7.801147 16.050833 2.106454
v -7.801147 11.871882 2.110982
v -7.801147 11.871880 -2.110980
v -20.626980 16.058210 -2.099073
v -20.626980 16.058210 2.099071
v -7.801147 16.050829 -2.106455
v -20.626982 11.859973 2.099072
v -14.912979 6.878060 7.074782
v -7.801146 6.878055 7.074781
v -14.912977 6.878057 -7.074779
v -20.626980 11.859971 -2.099074
v -14.912979 21.040125 7.074778
v -7.801146 21.040127 7.074780
v -7.801147 16.050833 2.106454
v -14.912977 21.040123 -7.074782
v -7.801147 11.871882 2.110982
v -7.801143 6.878053 -7.074778
v -7.801147 11.871880 -2.110980
v -20.626980 16.058210 -2.099073
v -20.626980 16.058210 2.099071
v -7.801143 21.040125 -7.074780
v -7.801147 16.050829 -2.106455
v -20.626982 11.859973 2.099072
v -7.656369 13.929512 -5.714000
v -7.656369 8.981043 -2.857000
v -7.656369 8.981043 2.857000
v -7.656369 13.929512 5.714000
v -7.656369 18.877981 5.714000
v -7.656369 18.877981 -2.856998
v -7.219184 17.082983 -6.796222
v -7.219184 17.083286 -10.567604
v -7.219184 20.713404 -10.567311
v -7.219184 20.713102 -6.795932
v 23.086735 0.121953 -1.426283
v 17.932898 0.121953 -1.426283
v 23.086735 0.121953 1.465771
v 17.932898 0.121953 1.465771
v 2.541235 5.995657 11.336990
v -2.177718 5.995656 11.336990
v 2.541238 8.500249 12.783019
v -2.177716 8.500249 12.783019
v -14.912979 6.878060 7.074782
v -14.912979 6.878060 7.074782
v -14.912979 6.878060 7.074782
v -14.912979 6.878060 7.074782
v -14.912979 6.878060 7.074782
v -7.801146 6.878055 7.074781
v -7.801146 6.878055 7.074781
v -7.801146 6.878055 7.074781
v -7.801146 6.878055 7.074781
v -7.801146 6.878055 7.074781
v -14.912979 21.040125 7.074778
v -14.912979 21.040125 7.074778
v -14.912979 21.040125 7.074778
v -14.912979 21.040125 7.074778
v -14.912979 21.040125 7.074778
v -7.801146 21.040127 7.074780
v -7.801146 21.040127 7.074780
v -7.801146 21.040127 7.074780
v -7.801146 21.040127 7.074780
v -7.801146 21.040127 7.074780
v -14.912977 21.040123 -7.074782
v -14.912977 21.040123 -7.074782
v -14.912977 21.040123 -7.074782
v -14.912977 21.040123 -7.074782
v -14.912977 21.040123 -7.074782
v -14.912977 6.878057 -7.074779
v -14.912977 6.878057 -7.074779
v -14.912977 6.878057 -7.074779
v -14.912977 6.878057 -7.074779
v -14.912977 6.878057 -7.074779
v -20.626980 11.859971 -2.099074
v -7.801147 16.050833 2.106454
v -20.626980 16.058210 -2.099073
v -7.801147 16.050829 -2.106455
v -7.801143 6.878053 -7.074778
v -7.801143 6.878053 -7.074778
v -7.801143 6.878053 -7.074778
v -7.801143 6.878053 -7.074778
v -7.801143 6.878053 -7.074778
v -7.801143 21.040125 -7.074780
v -7.801143 21.040125 -7.074780
v -7.801143 21.040125 -7.074780
v -7.801143 21.040125 -7.074780
v -7.801143 21.040125 -7.074780
v -7.801147 11.871880 -2.110980
v -20.626982 11.859973 2.099072
v -7.801147 11.871882 2.110982
v -20.626980 16.058210 2.099071
vt 0.063453 0.753836
vt 0.185559 0.787826
vt 0.063453 0.787826
vt 0.162250 0.925878
vt 0.185571 0.898508
vt 0.162250 0.898508
vt 0.112385 0.965611
vt 0.154322 0.987351
vt 0.112385 0.987351
vt 0.112385 0.943870
vt 0.154322 0.965611
vt 0.154322 0.965611
vt 0.112385 0.965611
vt 0.103685 0.965611
vt 0.103685 0.934929
vt 0.103685 0.965611
vt 0.103685 0.996292
vt 0.093802 0.996292
vt 0.093802 0.965611
vt 0.093802 0.965611
vt 0.093802 0.934929
vt 0.160281 0.992722
vt 0.178085 0.972821
vt 0.178085 0.992722
vt 0.181809 0.992722
vt 0.178085 0.972821
vt 0.181809 0.972821
vt 0.160281 0.992722
vt 0.178085 0.992722
vt 0.181809 0.972821
vt 0.181809 0.992722
vt 0.086491 0.867176
vt 0.093623 0.892658
vt 0.064396 0.892658
vt 0.145833 0.837208
vt 0.137818 0.855588
vt 0.137818 0.820532
vt 0.063453 0.820531
vt 0.185559 0.787826
vt 0.154322 0.943870
vt 0.083932 0.953147
vt 0.070354 0.980497
vt 0.070354 0.953162
vt 0.162250 0.898595
vt 0.185571 0.925964
vt 0.162250 0.925964
vt 0.168764 0.961125
vt 0.185571 0.925878
vt 0.168764 0.863348
vt 0.185571 0.898595
vt 0.185623 0.925276
vt 0.162199 0.925276
vt 0.185623 0.899374
vt 0.185623 0.899374
vt 0.162199 0.925276
vt 0.162199 0.899374
vt 0.185623 0.925276
vt 0.162199 0.899374
vt 0.170008 0.925276
vt 0.162199 0.899374
vt 0.162199 0.925276
vt 0.185623 0.925276
vt 0.162199 0.925276
vt 0.185623 0.899374
vt 0.185623 0.899374
vt 0.162199 0.925276
vt 0.162199 0.899374
vt 0.185623 0.925276
vt 0.162199 0.899374
vt 0.170008 0.899374
vt 0.162199 0.925276
vt 0.170008 0.925276
vt 0.170008 0.899374
vt 0.162199 0.899374
vt 0.185559 0.787826
vt 0.185559 0.753836
vt 0.137818 0.787826
vt 0.136712 0.938271
vt 0.117184 0.925806
vt 0.156240 0.925806
vt 0.063453 0.753836
vt 0.185559 0.753836
vt 0.089461 0.992557
vt 0.064788 0.942160
vt 0.089461 0.942160
vt 0.160281 0.972821
vt 0.160281 0.972821
vt 0.083932 0.980512
vt 0.117184 0.902454
vt 0.136712 0.889989
vt 0.156240 0.902454
vt 0.185571 0.961125
vt 0.185571 0.863348
vt 0.063453 0.787826
vt 0.063453 0.855588
vt 0.063453 0.787826
vt 0.185559 0.837208
vt 0.185559 0.855588
vt 0.093623 0.917814
vt 0.071718 0.917814
vt 0.071718 0.867176
vt 0.064788 0.992557
vt 0.004033 0.955852
vt 0.013756 0.993702
vt 0.027432 0.993702
vt 0.004033 0.902869
vt 0.004033 0.955852
vt 0.037021 0.955852
vt 0.037021 0.902869
vt 0.037021 0.955852
vt 0.027432 0.993702
vt 0.014874 0.856929
vt 0.026420 0.856929
vt 0.037021 0.902869
vt 0.026420 0.856929
vt 0.013756 0.993702
vt 0.026420 0.786321
vt 0.014874 0.786321
vt 0.014874 0.786321
vt 0.014874 0.856929
vt 0.026420 0.786321
vt 0.004033 0.902869
vt 0.059905 0.755856
vt 0.041692 0.792593
vt 0.041692 0.755856
vt 0.060107 0.992949
vt 0.060107 0.919838
vt 0.041822 0.919838
vt 0.060050 0.835003
vt 0.041654 0.908113
vt 0.060050 0.908113
vt 0.059905 0.755856
vt 0.041692 0.792593
vt 0.059905 0.822110
vt 0.060107 0.919838
vt 0.060107 0.992949
vt 0.041822 0.992949
vt 0.059905 0.755856
vt 0.041692 0.792593
vt 0.059905 0.822110
vt 0.041654 0.908113
vt 0.060050 0.835003
vt 0.041654 0.835003
vt 0.059905 0.755856
vt 0.041692 0.792593
vt 0.041692 0.755856
vt 0.059905 0.822110
vt 0.059905 0.755856
vt 0.041692 0.755856
vt 0.060050 0.908113
vt 0.060050 0.835003
vt 0.041654 0.835003
vt 0.060107 0.919838
vt 0.041822 0.992949
vt 0.060107 0.992949
vt 0.041692 0.755856
vt 0.059905 0.755856
vt 0.059905 0.822110
vt 0.060050 0.835003
vt 0.060050 0.908113
vt 0.041654 0.908113
vt 0.041692 0.755856
vt 0.059905 0.755856
vt 0.059905 0.822110
vt 0.041822 0.992949
vt 0.060107 0.919838
vt 0.041822 0.919838
vt 0.059905 0.822110
vt 0.059905 0.755856
vt 0.041692 0.755856
vt 0.041692 0.792593
vt 0.041654 0.908113
vt 0.041692 0.792593
vt 0.041692 0.792593
vt 0.041822 0.919838
vt 0.041692 0.792593
vt 0.059905 0.822110
vt 0.041822 0.992949
vt 0.041654 0.835003
vt 0.041692 0.755856
vt 0.041822 0.919838
vt 0.041692 0.755856
vt 0.060050 0.908113
vt 0.059905 0.822110
vt 0.060107 0.992949
vt 0.041654 0.835003
vt 0.002545 0.780343
vt 0.015166 0.755113
vt 0.015166 0.780343
vt 0.002545 0.755113
vn -0.2155 -0.7843 0.5817
vn 0.0000 -0.8660 -0.5000
vn -0.2155 -0.7843 -0.5817
vn 0.3795 -0.7948 0.4736
vn 0.3795 -0.7948 -0.4736
vn -0.3485 0.6547 0.6707
vn 0.0000 -0.7071 0.7070
vn -0.3475 -0.6558 0.6702
vn -0.3475 0.6558 -0.6702
vn 0.0000 0.7070 0.7071
vn 0.0000 -0.7070 -0.7071
vn -0.3485 -0.6547 -0.6707
vn -0.2676 0.6853 0.6773
vn -0.2669 0.6821 -0.6808
vn -0.2676 -0.6853 -0.6773
vn -0.2669 -0.6821 0.6808
vn 0.5775 -0.5759 0.5787
vn 0.5772 -0.5788 -0.5760
vn 0.5772 0.5788 0.5760
vn 0.5775 0.5759 -0.5787
vn -0.7090 0.5551 0.4349
vn 0.7046 0.5575 0.4390
vn 0.7096 0.5535 0.4359
vn -0.7096 -0.5535 -0.4359
vn -0.7051 0.5582 0.4373
vn 0.7051 -0.5582 -0.4373
vn -0.7046 -0.5575 -0.4390
vn 0.7090 -0.5551 -0.4349
vn -1.0000 0.0000 0.0000
vn 0.2017 0.6833 0.7017
vn 0.0844 -0.0923 0.9921
vn 0.1423 0.9153 0.3768
vn -0.1948 0.7941 0.5757
vn 0.0000 0.8660 -0.5000
vn 0.0000 0.7071 -0.7070
vn 0.4276 0.7692 -0.4748
vn 0.4276 0.7692 0.4748
vn 0.3659 -0.0118 0.9305
vn 0.3659 -0.0118 -0.9305
vn -0.1948 0.7941 -0.5757
vn 0.5659 0.2522 -0.7849
vn 0.7366 0.3283 -0.5912
vn -0.7366 -0.3283 -0.5912
vn 0.5659 0.2522 0.7849
vn -0.5659 -0.2522 0.7849
vn 0.7366 0.3283 0.5912
vn -0.7366 -0.3283 0.5912
vn -0.5659 -0.2522 -0.7849
vn 0.0000 -1.0000 0.0000
vn 0.7071 -0.6124 -0.3536
vn -0.7071 -0.6124 -0.3535
vn 0.7071 0.6124 0.3535
vn -0.7071 0.6124 0.3536
vn 0.0000 -0.5000 0.8660
vn 0.0000 -0.2588 0.9659
vn 0.0000 -0.8660 0.5000
vn 0.0145 0.0027 -0.9999
vn 0.0000 0.0000 -1.0000
vn 0.0145 0.0027 0.9999
vn 0.0000 0.7071 0.7071
vn -0.3320 -0.6675 0.6665
vn -0.8548 -0.3673 0.3667
vn -0.8548 -0.3667 -0.3673
vn 0.3192 0.6706 -0.6696
vn -0.3320 0.6675 -0.6665
vn -0.3320 0.6665 0.6675
vn 0.3192 -0.6696 -0.6706
vn -0.3320 -0.6665 -0.6675
vn -0.8548 0.3667 0.3673
vn 0.4382 0.6357 -0.6355
vn 0.4383 -0.6358 -0.6353
vn 0.3192 0.6696 0.6706
vn 0.4382 0.6358 0.6354
vn -0.8548 0.3673 -0.3667
vn 0.0002 -0.7064 -0.7078
vn 0.0000 0.7072 -0.7070
vn 0.0002 -0.7064 0.7078
vn 0.4383 -0.6357 0.6354
vn 0.0000 0.7072 0.7070
vn 0.3192 -0.6706 0.6696
vn -0.0006 0.7054 0.7088
vn -0.0009 0.7056 0.7086
vn 0.0000 0.7049 0.7092
vn 0.0000 1.0000 0.0000
vn 0.0000 0.0000 1.0000
vn -0.0006 0.7054 -0.7088
vn -0.0009 0.7056 -0.7086
vn -0.0013 0.7059 -0.7083
vn -0.0004 -0.7059 0.7083
vn -0.0005 -0.7060 0.7082
vn -0.0008 -0.7062 0.7080
vn -0.0004 -0.7059 -0.7083
vn -0.0005 -0.7060 -0.7082
vn 0.0000 -0.7056 -0.7086
vn 0.0007 -0.7057 -0.7085
vn 0.0013 -0.7049 -0.7092
vn 0.0009 -0.7055 -0.7087
vn 0.0009 -0.7055 0.7087
vn 0.0013 -0.7049 0.7092
vn 0.0007 -0.7057 0.7085
vn 0.0005 0.7059 -0.7082
vn 0.0008 0.7056 -0.7086
vn 0.0005 0.7060 -0.7081
vn 0.0005 0.7060 0.7081
vn 0.0008 0.7056 0.7086
vn 0.0005 0.7059 0.7082
vn 0.0000 -0.7067 -0.7075
vn 0.0000 -0.7067 0.7075
vn 0.0000 0.7067 -0.7075
vn 0.0000 0.7067 0.7075
vn -0.0013 0.7059 0.7083
vn 0.0000 0.7049 -0.7092
vn 0.0000 -0.7056 0.7086
vn -0.0008 -0.7062 -0.7080
usemtl mtl_wpn_mega
s 1
f 38/1/1 99/2/2 36/3/3
f 42/4/4 36/5/3 43/6/5
f 35/7/6 14/8/7 32/9/8
f 34/10/9 107/11/10 35/7/6
f 32/9/8 13/12/11 33/13/12
f 34/10/9 17/14/13 20/15/14
f 19/16/15 34/10/9 20/15/14
f 17/14/13 32/9/8 18/17/16
f 10/18/17 19/16/15 9/19/18
f 20/15/14 11/20/19 12/21/20
f 11/20/19 18/17/16 10/18/17
f 9/19/18 20/15/14 12/21/20
f 27/22/21 24/23/22 26/24/23
f 27/25/21 21/26/24 22/27/25
f 25/28/26 21/26/24 28/29/27
f 26/24/23 23/30/28 25/31/26
f 3/32/29 101/33/29 1/34/29
f 31/35/30 29/36/31 30/37/32
f 30/37/32 41/38/33 103/39/34
f 33/13/12 106/40/35 34/10/9
f 15/41/29 105/42/29 104/43/29
f 19/16/15 33/13/12 34/10/9
f 17/14/13 35/7/6 32/9/8
f 44/44/36 41/45/33 45/46/37
f 7/47/38 38/48/1 42/4/4
f 36/5/3 8/49/39 43/6/5
f 8/49/39 40/50/40 44/44/36
f 46/51/41 48/52/42 47/53/43
f 50/54/44 111/55/45 110/56/46
f 46/51/41 110/56/46 48/52/42
f 111/55/45 51/57/47 49/58/48
f 109/59/49 52/60/49 53/61/49
f 54/62/50 56/63/50 55/64/51
f 58/65/52 115/66/53 114/67/52
f 56/63/50 58/65/52 114/67/52
f 115/66/53 59/68/53 57/69/51
f 112/70/54 61/71/54 113/72/54
f 51/57/47 47/53/43 49/58/48
f 50/54/44 51/57/47 111/55/45
f 46/51/41 50/54/44 110/56/46
f 59/68/53 55/64/51 57/69/51
f 109/59/49 108/73/49 52/60/49
f 58/65/52 59/68/53 115/66/53
f 56/63/50 54/62/50 58/65/52
f 56/63/50 57/69/51 55/64/51
f 112/70/54 60/74/54 61/71/54
f 48/52/42 49/58/48 47/53/43
f 4/75/55 100/76/56 29/77/31
f 8/78/39 44/79/36 43/80/5
f 19/16/15 32/9/8 33/13/12
f 38/1/1 29/77/31 100/76/56
f 37/81/57 99/2/2 98/82/58
f 42/4/4 38/48/1 36/5/3
f 35/7/6 107/11/10 14/8/7
f 34/10/9 106/40/35 107/11/10
f 32/9/8 14/8/7 13/12/11
f 11/20/19 17/14/13 18/17/16
f 9/19/18 19/16/15 20/15/14
f 12/83/20 10/84/17 9/85/18
f 27/22/21 22/86/25 24/23/22
f 27/25/21 28/29/27 21/26/24
f 25/28/26 23/87/28 21/26/24
f 26/24/23 24/23/22 23/30/28
f 33/13/12 13/12/11 106/40/35
f 15/41/29 16/88/29 105/42/29
f 44/44/36 40/50/40 41/45/33
f 45/89/37 7/90/38 42/91/4
f 41/45/33 7/47/38 45/46/37
f 43/80/5 45/89/37 42/91/4
f 103/39/34 37/81/57 98/82/58
f 38/1/1 100/76/56 99/2/2
f 7/47/38 39/92/59 38/48/1
f 36/5/3 37/93/57 8/49/39
f 8/49/39 37/93/57 40/50/40
f 37/81/57 36/3/3 99/2/2
f 41/45/33 39/92/59 7/47/38
f 43/80/5 44/79/36 45/89/37
f 103/39/34 40/94/40 37/81/57
f 41/38/33 29/36/31 39/95/59
f 38/1/1 39/96/59 29/77/31
f 41/38/33 30/37/32 29/36/31
f 103/39/34 102/97/60 30/37/32
f 31/35/30 102/97/60 4/98/55
f 29/36/31 31/35/30 4/98/55
f 41/38/33 40/94/40 103/39/34
f 102/97/60 31/35/30 30/37/32
f 34/10/9 35/7/6 17/14/13
f 10/18/17 18/17/16 19/16/15
f 20/15/14 17/14/13 11/20/19
f 5/99/29 6/100/29 101/33/29
f 6/100/29 1/34/29 101/33/29
f 1/34/29 2/101/29 3/32/29
f 19/16/15 18/17/16 32/9/8
f 12/83/20 11/102/19 10/84/17
f 64/103/61 73/104/62 72/105/63
f 69/106/64 68/107/65 66/108/66
f 63/109/67 62/110/68 68/107/65
f 66/108/66 71/111/69 73/104/62
f 78/112/70 74/113/71 63/109/67
f 67/114/72 79/115/73 69/106/64
f 68/107/65 62/110/68 70/116/74
f 77/117/75 78/112/70 80/118/76
f 76/119/77 79/115/73 81/120/78
f 76/119/77 74/113/71 77/117/75
f 80/118/76 79/115/73 75/121/79
f 68/107/65 70/116/74 71/111/69
f 74/113/71 81/120/78 65/122/80
f 62/110/68 64/103/61 72/105/63
f 81/120/78 79/115/73 67/114/72
f 65/122/80 64/103/61 62/110/68
f 79/115/73 78/112/70 69/106/64
f 69/106/64 78/112/70 63/109/67
f 66/108/66 68/107/65 71/111/69
f 68/107/65 69/106/64 63/109/67
f 62/110/68 63/109/67 65/122/80
f 64/103/61 66/108/66 73/104/62
f 77/117/75 74/113/71 78/112/70
f 76/119/77 75/121/79 79/115/73
f 76/119/77 81/120/78 74/113/71
f 80/118/76 78/112/70 79/115/73
f 90/123/81 82/124/82 124/125/83
f 143/126/84 118/127/84 123/128/84
f 132/129/85 119/130/85 122/131/85
f 92/132/86 142/133/87 146/134/88
f 137/135/85 141/136/85 150/137/85
f 88/138/89 126/139/90 163/140/91
f 158/141/84 127/142/84 134/143/84
f 96/144/92 140/145/93 156/146/94
f 161/147/95 162/148/96 125/149/97
f 116/150/49 145/151/49 153/152/49
f 83/153/58 128/154/58 87/155/58
f 151/156/98 160/157/99 85/158/100
f 144/159/58 89/160/58 159/161/58
f 133/162/101 147/163/102 94/164/103
f 135/165/49 139/166/49 95/167/49
f 148/168/104 149/169/105 157/170/106
f 161/147/95 125/149/97 120/171/107
f 116/150/49 153/152/49 121/172/49
f 151/156/98 85/158/100 84/173/108
f 133/162/101 94/164/103 86/174/109
f 83/153/58 117/175/58 128/154/58
f 148/168/104 157/170/106 138/176/110
f 90/123/81 97/177/111 82/124/82
f 143/126/84 123/128/84 154/178/84
f 132/129/85 129/179/85 119/130/85
f 92/132/86 152/180/112 142/133/87
f 137/135/85 150/137/85 155/181/85
f 88/138/89 131/182/113 126/139/90
f 158/141/84 136/183/84 127/142/84
f 96/144/92 93/184/114 140/145/93
f 135/165/49 130/185/49 139/166/49
f 144/159/58 159/161/58 91/186/58
f 65/122/80 81/120/78 67/114/72
f 67/114/72 66/108/66 64/103/61
f 66/108/66 67/114/72 69/106/64
f 62/110/68 72/105/63 70/116/74
f 63/109/67 74/113/71 65/122/80
f 64/103/61 65/122/80 67/114/72
f 72/187/63 71/188/69 70/189/74
f 72/187/63 73/190/62 71/188/69
