# Blender v2.79 (sub 0) OBJ File: 'weapon_drops_scaling.blend'
# www.blender.org
mtllib PumpShotgun.mtl
o Arms.002_Mesh.001
v 13.019227 14.048460 1.856847
v -6.351050 9.452586 -1.856845
v -6.351050 15.221402 -1.856845
v -6.351050 9.452586 1.856850
v -6.351050 15.221402 1.856850
v 8.248460 15.221402 1.856848
v 8.248459 15.221402 -1.856848
v 13.020008 8.724502 -0.000001
v -6.351050 8.724502 0.000002
v -6.351050 16.054811 0.000002
v 8.248460 16.054811 0.000000
v -6.344117 15.816583 0.002636
v -6.344117 12.526148 0.002637
v -43.299736 12.671660 0.003341
v -43.299736 15.671071 0.003341
v -6.310259 12.305055 0.002900
v -6.310259 9.119629 0.002901
v -6.310259 10.712341 1.595613
v -6.310256 10.707712 -1.573804
v -34.113007 12.305055 0.002868
v -34.113007 9.119629 0.002868
v -34.113007 10.712341 1.595580
v -34.113007 10.707712 -1.573837
v 39.003376 1.391252 -1.979014
v 38.821251 -0.019755 -0.000004
v 39.819637 9.539534 -1.979015
v 39.819637 9.539534 1.979006
v 39.910950 11.284504 -0.000005
v 13.019227 9.452586 -1.856849
v 13.019227 14.048460 -1.856849
v 13.019227 9.452586 1.856847
v 13.019227 14.881871 -0.000001
v 20.235788 10.564604 -1.557379
v 20.235788 10.564604 1.557375
v 20.235788 11.398015 -0.000002
v 25.374033 11.601335 -1.763747
v 39.003376 1.391252 1.979007
v 25.374033 11.601335 1.763742
v 24.965391 13.025000 -0.000003
v 19.907595 7.315535 1.570696
v 19.759214 6.406408 -0.000001
v 19.907595 7.315535 -1.570699
v -18.435652 7.856361 0.000004
v -32.371071 13.579700 0.000006
v -32.371071 7.856304 0.000006
v -18.435652 13.579700 0.000004
v 37.585205 9.858451 -1.937320
v 36.799164 2.075088 -1.944166
v 37.754585 11.535625 -0.000004
v 36.661140 0.708459 -0.000004
v 37.585197 9.858452 1.937312
v 36.799156 2.075089 1.944160
v 24.592604 5.862055 1.806793
v 24.451353 4.824602 -0.000002
v 24.592604 5.862055 -1.806797
v 8.248460 9.452586 -1.856848
v 8.248458 8.724502 0.000000
v 8.248457 9.452586 1.856848
v -4.431536 15.221402 -1.856846
v 2.055576 15.221402 -1.856847
v -4.431535 13.284233 -1.856846
v 2.055580 13.284233 -1.856847
v -4.431535 15.586479 -1.043449
v 2.055576 15.585126 -1.046468
v -4.431536 15.055058 -1.467337
v 2.055576 15.055058 -1.467337
v -4.431535 13.284233 -1.467337
v 2.055580 13.284235 -1.467337
v -4.431535 15.219574 -1.021868
v 2.055576 15.218220 -1.024886
v -32.371071 12.050778 2.371101
v -18.435652 12.050778 2.371099
v -32.371071 9.385225 -2.371089
v -18.435652 12.050778 -2.371091
v -32.371071 9.385225 2.371101
v -18.435652 9.385252 -2.371091
v -18.435652 9.385252 2.371099
v -32.371071 12.050778 -2.371089
v -4.431535 15.195098 -1.043449
v 2.055576 15.193974 -1.046468
v 2.055578 13.284233 -1.451658
v -4.431535 13.284233 -1.450147
v 2.055577 15.043029 -1.451658
v -4.431536 15.043591 -1.450147
v -4.431535 15.195098 1.185770
v 2.055576 15.193974 1.182751
v 2.055579 11.303671 1.498486
v -4.431535 11.303671 1.499996
v 2.055577 15.043029 1.498486
v -4.431536 15.043591 1.499996
v -4.431535 11.303671 -1.456097
v 2.055578 11.303671 -1.457607
v -6.344117 15.006082 1.431151
v -6.344113 13.333460 -1.414725
v -43.299736 13.412062 1.305570
v -43.299736 13.407642 -1.288602
v -43.299736 14.932329 1.305570
v -6.344117 13.338308 1.431151
v -6.344113 15.001236 -1.414725
v -43.299736 14.927911 -1.288602
v -6.351050 15.221402 1.856850
v -6.351050 9.452586 1.856850
v -6.351050 8.724502 0.000002
v -6.351050 15.221402 -1.856845
v -6.351050 9.452586 -1.856845
v -6.351050 16.054811 0.000002
v -43.299736 13.412062 1.305570
v -43.299736 12.671660 0.003341
v -34.113007 10.707712 -1.573837
v -34.113007 12.305055 0.002868
v -34.113007 10.712341 1.595580
v -34.113007 9.119629 0.002868
v 38.821251 -0.019755 -0.000004
v 39.003376 1.391252 -1.979014
v 39.910950 11.284504 -0.000005
v 39.819637 9.539534 1.979006
v 39.819637 9.539534 -1.979015
v 39.003376 1.391252 1.979007
v -18.435652 9.385252 -2.371091
v -18.435652 7.856361 0.000004
v -32.371071 12.050778 2.371101
v -32.371071 9.385225 2.371101
v -18.435652 12.050778 2.371099
v -18.435652 9.385252 2.371099
v -32.371071 13.579700 0.000006
v -18.435652 13.579700 0.000004
v -32.371071 7.856304 0.000006
v -18.435652 12.050778 -2.371091
v -32.371071 12.050778 -2.371089
v -32.371071 9.385225 -2.371089
v -43.299736 13.407642 -1.288602
v -43.299736 14.932329 1.305570
v -43.299736 15.671071 0.003341
v -43.299736 14.927911 -1.288602
vt 0.447067 0.214706
vt 0.447067 0.206191
vt 0.445018 0.206213
vt 0.445018 0.214729
vt 0.406231 0.207656
vt 0.416009 0.206191
vt 0.416010 0.187852
vt 0.497995 0.196840
vt 0.498016 0.153042
vt 0.475040 0.153042
vt 0.475029 0.207656
vt 0.498016 0.140868
vt 0.475040 0.140868
vt 0.406231 0.246189
vt 0.475029 0.246189
vt 0.475029 0.227130
vt 0.406231 0.227130
vt 0.498016 0.246189
vt 0.498016 0.227130
vt 0.497958 0.031283
vt 0.497958 0.044971
vt 0.322169 0.044971
vt 0.322169 0.031283
vt 0.497958 0.072220
vt 0.322169 0.072220
vt 0.322169 0.058606
vt 0.497958 0.058606
vt 0.339669 0.097786
vt 0.339669 0.118177
vt 0.329488 0.118177
vt 0.329488 0.097786
vt 0.497958 0.093785
vt 0.371395 0.093785
vt 0.371395 0.113446
vt 0.497958 0.113446
vt 0.497958 0.113446
vt 0.371395 0.113446
vt 0.497958 0.132787
vt 0.371395 0.132787
vt 0.386689 0.226408
vt 0.386692 0.168099
vt 0.404240 0.168101
vt 0.404240 0.226410
vt 0.395464 0.237184
vt 0.498016 0.153042
vt 0.475045 0.153042
vt 0.345075 0.200441
vt 0.345075 0.166538
vt 0.384686 0.166538
vt 0.384686 0.200440
vt 0.498016 0.207656
vt 0.384686 0.223393
vt 0.384686 0.200440
vt 0.345075 0.200441
vt 0.345075 0.223393
vt 0.384686 0.246289
vt 0.345075 0.246289
vt 0.317402 0.151481
vt 0.317360 0.200441
vt 0.345075 0.166538
vt 0.317360 0.223393
vt 0.261587 0.200441
vt 0.261587 0.223393
vt 0.384686 0.146311
vt 0.345075 0.146311
vt 0.384686 0.166538
vt 0.395466 0.159118
vt 0.317381 0.129821
vt 0.261587 0.122813
vt 0.251871 0.117983
vt 0.251871 0.200441
vt 0.317360 0.246289
vt 0.261587 0.246289
vt 0.251871 0.200441
vt 0.251871 0.117983
vt 0.261587 0.122813
vt 0.261587 0.200441
vt 0.261587 0.097464
vt 0.251871 0.092096
vt 0.251871 0.223393
vt 0.317402 0.151481
vt 0.317360 0.200441
vt 0.406231 0.140868
vt 0.406231 0.153042
vt 0.406231 0.153042
vt 0.475029 0.207656
vt 0.406231 0.207656
vt 0.497995 0.196840
vt 0.251871 0.246289
vt 0.249861 0.030455
vt 0.322162 0.030454
vt 0.322162 0.057782
vt 0.249861 0.057782
vt 0.249861 0.003919
vt 0.322162 0.003918
vt 0.320225 0.057782
vt 0.320225 0.030454
vt 0.251847 0.030455
vt 0.251847 0.057782
vt 0.320225 0.003918
vt 0.251847 0.003919
vt 0.447069 0.187852
vt 0.416009 0.214706
vt 0.434368 0.164184
vt 0.406247 0.164184
vt 0.406247 0.168030
vt 0.434368 0.168030
vt 0.406247 0.152971
vt 0.434368 0.152971
vt 0.344262 0.117300
vt 0.349156 0.102121
vt 0.357688 0.102121
vt 0.362582 0.117300
vt 0.320225 0.085902
vt 0.251848 0.085902
vt 0.344262 0.117300
vt 0.349156 0.102121
vt 0.357688 0.102121
vt 0.362582 0.117300
vt 0.249861 0.085902
vt 0.322163 0.085902
vt 0.349156 0.132480
vt 0.357688 0.132480
vt 0.349156 0.132479
vt 0.357688 0.132480
vt 0.447066 0.211019
vt 0.416009 0.211019
vt 0.418072 0.206238
vt 0.418072 0.187864
vt 0.416010 0.191678
vt 0.447069 0.191678
vt 0.445018 0.187989
vt 0.418072 0.214779
vt 0.441140 0.191903
vt 0.421955 0.191872
vt 0.421950 0.197827
vt 0.440945 0.197827
vt 0.440945 0.211072
vt 0.440945 0.207517
vt 0.421950 0.207496
vt 0.421950 0.211072
vt 0.497958 0.003947
vt 0.497958 0.017609
vt 0.322169 0.017609
vt 0.322169 0.003947
vt 0.339669 0.097786
vt 0.339669 0.111380
vt 0.336275 0.118177
vt 0.329488 0.118177
vt 0.329488 0.104583
vt 0.332882 0.097786
vt 0.497958 0.085815
vt 0.322169 0.085815
vt 0.413799 0.146149
vt 0.413799 0.215546
vt 0.406231 0.207656
vt 0.406231 0.153042
vt 0.406231 0.153042
vt 0.406231 0.207656
vn -0.2030 0.7593 -0.6182
vn -0.6028 0.4335 -0.6698
vn -1.0000 0.0000 0.0000
vn -0.9046 -0.3014 -0.3014
vn 0.0000 0.5434 -0.8395
vn 0.6028 0.4335 -0.6698
vn 0.3015 0.3015 -0.9045
vn 0.2076 0.5310 -0.8215
vn -0.0582 -0.5029 -0.8624
vn 0.0000 -0.5634 -0.8261
vn 0.0711 0.5682 -0.8198
vn -0.1562 -0.9877 0.0000
vn 0.0000 -1.0000 0.0000
vn 0.0000 0.5434 0.8395
vn 0.0711 0.5682 0.8198
vn 0.1166 0.9932 0.0000
vn 0.0000 1.0000 0.0000
vn 0.2076 0.5310 0.8215
vn 0.3331 0.9429 0.0000
vn -0.0039 0.5033 0.8641
vn -0.0039 1.0000 -0.0030
vn -0.0039 -0.5025 -0.8646
vn -0.0039 0.5007 -0.8656
vn 0.0000 -1.0000 -0.0018
vn 0.0000 -0.0014 -1.0000
vn 0.0000 0.0000 1.0000
vn 0.0000 1.0000 -0.0032
vn 0.9964 -0.0847 0.0000
vn 0.9942 -0.1077 0.0000
vn 0.9986 -0.0522 0.0000
vn -0.0582 -0.5029 0.8624
vn 0.0000 -0.5634 0.8261
vn 0.0386 0.4140 -0.9094
vn -0.1677 -0.4967 -0.8516
vn 0.0386 0.4140 0.9094
vn 0.1160 0.9932 0.0000
vn -0.1700 -0.4598 0.8715
vn -0.0427 0.4770 0.8778
vn -0.1677 -0.4967 0.8516
vn -0.0991 0.9951 0.0000
vn 0.0432 0.4187 0.9071
vn 0.1216 0.9926 0.0000
vn -0.3117 -0.9502 0.0000
vn 0.9918 -0.1280 0.0000
vn -0.3158 -0.9488 0.0000
vn -0.1558 -0.4476 0.8805
vn -0.1667 -0.4790 0.8618
vn 0.0384 0.3961 0.9174
vn -0.0427 0.4770 -0.8778
vn 0.0432 0.4187 -0.9071
vn 0.0384 0.3961 -0.9174
vn -0.1667 -0.4790 -0.8618
vn -0.1558 -0.4476 -0.8805
vn -0.3121 -0.9500 0.0000
vn -0.3128 -0.9498 0.0000
vn 0.1205 0.9927 0.0000
vn -0.1700 -0.4598 -0.8715
vn 0.0000 0.4786 0.8780
vn 0.0000 -0.4786 0.8780
vn 0.0000 -0.4786 -0.8780
vn 0.0000 0.4786 -0.8780
vn -0.3015 0.3015 -0.9045
vn 0.2028 0.7594 -0.6182
vn 0.0000 0.5717 -0.8204
vn 0.0000 0.9381 -0.3462
vn 0.0000 0.0000 -1.0000
vn 1.0000 0.0000 0.0000
vn 0.9044 -0.3016 -0.3016
vn 0.9047 0.3008 0.3017
vn -0.9046 0.3009 0.3017
vn -0.5771 0.5765 0.5784
vn 0.5772 0.5766 0.5782
vn 0.5773 0.5773 -0.5774
vn -0.5774 0.5773 -0.5773
vn -0.6607 -0.7319 -0.1665
vn -0.6044 -0.4242 -0.6743
vn 0.6048 -0.4241 -0.6740
vn 0.6601 -0.7324 -0.1668
vn -0.0039 -1.0000 -0.0004
vn -0.0039 -0.5029 0.8643
usemtl mtl_wpn_mega
s 1
f 64/1/1 60/2/2 83/3/3 80/4/4
f 104/5/5 59/6/6 61/7/7
f 30/8/8 29/9/9 56/10/10 7/11/11
f 8/12/12 57/13/13 56/10/10 29/9/9
f 101/14/14 6/15/15 11/16/16 106/17/17
f 6/15/15 1/18/18 32/19/19 11/16/16
f 93/20/20 12/21/21 133/22/21 97/23/20
f 94/24/22 96/25/22 134/26/23 99/27/23
f 112/28/3 111/29/3 110/30/3 109/31/3
f 17/32/24 21/33/24 23/34/25 19/35/25
f 18/36/26 22/37/26 21/33/24 17/32/24
f 16/38/27 20/39/27 22/37/26 18/36/26
f 19/35/25 23/34/25 20/39/27 16/38/27
f 116/40/28 118/41/29 114/42/29 117/43/28
f 115/44/30 116/40/28 117/43/28
f 31/45/31 58/46/32 57/13/13 8/12/12
f 33/47/33 42/48/34 29/49/9 30/50/8
f 11/16/16 32/19/19 30/51/8 7/11/11
f 32/52/19 1/53/18 34/54/35 35/55/36
f 30/56/8 32/52/19 35/55/36 33/57/33
f 53/58/37 38/59/38 34/54/35 40/60/39
f 35/55/36 34/54/35 38/59/38 39/61/40
f 39/61/40 38/59/38 51/62/41 49/63/42
f 8/64/12 29/49/9 42/48/34 41/65/43
f 31/66/31 8/64/12 41/65/43 40/60/39
f 31/66/31 40/60/39 34/54/35 1/53/18
f 118/41/29 113/67/44 114/42/29
f 40/60/39 41/65/43 54/68/45 53/58/37
f 51/62/41 38/59/38 53/58/37 52/69/46
f 51/62/41 52/69/46 37/70/47 27/71/48
f 36/72/49 39/61/40 49/63/42 47/73/50
f 26/74/51 24/75/52 48/76/53 47/77/50
f 50/78/54 48/76/53 24/75/52 25/79/55
f 49/63/42 51/62/41 27/71/48 28/80/56
f 47/77/50 48/76/53 55/81/57 36/82/49
f 52/69/46 50/78/54 25/79/55 37/70/47
f 41/65/43 42/48/34 55/81/57 54/68/45
f 53/58/37 54/68/45 50/78/54 52/69/46
f 54/68/45 55/81/57 48/76/53 50/78/54
f 56/10/10 57/13/13 103/83/13 105/84/10
f 57/13/13 58/46/32 102/85/32 103/83/13
f 58/46/32 6/86/15 101/87/14 102/85/32
f 1/88/18 6/86/15 58/46/32 31/45/31
f 33/47/33 36/82/49 55/81/57 42/48/34
f 47/73/50 49/63/42 28/80/56 26/89/51
f 123/90/58 121/91/58 122/92/59 124/93/59
f 123/90/58 126/94/17 125/95/17 121/91/58
f 130/96/60 129/97/61 128/98/61 76/99/60
f 125/100/17 126/101/17 128/98/61 129/97/61
f 7/11/11 56/10/10 62/102/62
f 56/10/10 105/84/10 61/7/7 62/102/62
f 33/57/33 35/55/36 39/61/40 36/72/49
f 60/2/2 64/1/1 11/16/16 7/11/11
f 106/17/17 11/16/16 64/1/1 63/103/63
f 105/84/10 104/5/5 61/7/7
f 60/2/2 7/11/11 62/102/62
f 66/104/64 65/105/64 69/106/65 70/107/65
f 67/108/66 65/105/64 66/104/64 68/109/66
f 120/110/67 119/111/67 74/112/67 46/113/67
f 127/114/13 130/96/60 76/99/60 43/115/13
f 45/116/3 75/117/3 71/118/3 44/119/3
f 43/120/13 124/93/59 122/92/59 127/121/13
f 77/122/67 120/110/67 46/113/67 72/123/67
f 73/124/3 45/116/3 44/119/3 78/125/3
f 104/5/5 106/17/17 63/103/63 59/6/6
f 63/103/63 64/1/1 80/126/4 79/127/68
f 61/7/7 59/6/6 84/128/67 82/129/69
f 62/102/62 61/7/7 82/130/69 81/131/70
f 60/2/2 62/102/62 81/132/70 83/3/3
f 59/6/6 63/103/63 79/133/68 84/128/67
f 92/134/71 91/135/72 88/136/73 87/137/74
f 86/138/75 89/139/76 90/140/77 85/141/78
f 84/128/67 79/133/68 85/141/78 90/140/77
f 82/129/69 84/128/67 90/140/77 88/136/73 91/135/72
f 83/3/3 81/132/70 92/134/71 87/137/74 89/139/76
f 80/4/4 83/3/3 89/139/76 86/138/75
f 81/131/70 82/130/69 91/135/72 92/134/71
f 80/126/4 86/138/75 85/141/78 79/127/68
f 89/139/76 87/137/74 88/136/73 90/140/77
f 13/142/79 98/143/80 107/144/80 108/145/79
f 14/146/3 95/147/3 132/148/3 15/149/3 100/150/3 131/151/3
f 94/24/22 13/152/79 108/153/79 96/25/22
f 98/143/80 93/20/20 97/23/20 107/144/80
f 12/21/21 99/27/23 134/26/23 133/22/21
f 9/154/3 10/155/3 3/156/3 2/157/3
f 4/158/3 5/159/3 10/155/3 9/154/3
