# Blender v2.79 (sub 0) OBJ File: 'weapon_drops_scaling.blend'
# www.blender.org
mtllib SuperCoolGun.mtl
o Cylinder.002_Cylinder.004
v -36.196304 16.577921 -4.661656
v -1.922171 21.222580 1.165658
v -1.922171 21.222580 -1.165656
v -1.867707 16.559555 7.548066
v -1.867707 16.559555 -7.548066
v -1.922171 23.623907 0.000001
v -1.867707 8.951070 4.171462
v -36.196304 21.239574 -0.000000
v -1.867707 8.951070 -4.171462
v -1.922166 16.577921 -7.045984
v -1.922171 11.933259 1.165658
v -1.922171 11.933261 -1.165656
v 28.152561 20.823812 -4.784290
v -1.922171 15.412265 -4.644659
v -1.922171 9.531935 0.000001
v -1.922171 17.743576 -4.644659
v -36.196304 11.916265 -0.000000
v -1.922171 17.743576 4.644661
v -1.922171 15.412262 4.644661
v -1.922171 16.577919 7.045987
v -36.196304 16.577919 4.661656
v -25.444029 15.412262 4.644660
v -27.881649 16.577919 7.045986
v -25.444029 21.222580 1.165657
v -27.881649 23.623907 0.000000
v -25.444029 17.743576 4.644660
v -25.444029 21.222578 -1.165657
v -25.444029 15.412265 -4.644660
v -25.444029 17.743576 -4.644660
v -25.444029 11.933259 1.165657
v -27.881649 9.531935 0.000000
v -25.444029 11.933259 -1.165656
v -27.881649 16.577919 -7.045986
v -27.881649 21.558132 4.980215
v -36.196304 19.872852 3.294932
v -27.881649 21.558134 -4.980214
v -36.196304 19.872852 -3.294932
v -27.881649 11.597705 -4.980215
v -36.196304 13.282989 -3.294932
v -27.881649 11.597707 4.980215
v -36.196304 13.282989 3.294932
v -32.668259 16.577921 0.000000
v -1.922171 20.171503 3.593584
v -25.444029 20.171501 3.593583
v -1.922171 12.984338 3.593584
v -25.444029 12.984337 3.593583
v -1.922171 12.984338 -3.593582
v -25.444029 12.984338 -3.593583
v -1.922171 20.171503 -3.593582
v -25.444029 20.171503 -3.593583
v 28.152561 20.823812 4.784290
v 6.495390 20.826353 4.790948
v 28.152561 16.554577 7.542479
v 28.282520 8.951070 4.171462
v 6.495390 20.826353 -4.790948
v 28.152561 16.554577 -7.542479
v 28.282520 8.951070 -4.171462
v -27.875654 20.849678 -1.678545
v -27.875654 20.849676 1.678546
v -27.875654 23.981600 1.678545
v -27.875654 23.981600 -1.678545
v -16.819033 23.981600 1.678546
v -16.819033 23.981600 -1.678545
v -16.819033 20.849678 1.678547
v -16.819033 20.849678 -1.678544
v -1.867706 22.955622 3.338519
v 6.150738 23.170341 3.213826
v 6.674054 22.912041 0.000000
v 24.875443 22.912041 0.000000
v 7.010962 20.865368 1.926059
v 26.712830 20.865368 1.926059
v -1.867706 22.955622 -3.338519
v 6.150738 23.170341 -3.213826
v -18.237926 23.981600 -0.856256
v -18.237926 23.981600 0.856258
v -26.865192 23.981600 0.000002
v -18.237926 25.367788 -0.856255
v -18.237926 25.367788 0.856258
v 16.272181 9.088390 -1.426281
v 11.118350 9.088390 -1.426283
v 20.229727 0.209279 -1.426283
v 15.075895 0.209279 -1.426281
v 16.272181 9.088390 1.465769
v 11.118350 9.088390 1.465771
v 20.229727 0.209279 1.465769
v 15.075895 0.209279 1.465773
v 7.010962 20.865368 -1.926059
v 35.182327 16.300787 2.377641
v 36.968945 19.937462 0.000000
v 26.712830 20.865368 -1.926059
v 35.192001 10.820062 2.176937
v 36.621437 6.967597 0.000000
v 33.990089 6.967597 0.000000
v -27.875654 18.256466 4.271758
v -27.875654 14.899375 4.271758
v -27.875654 14.899376 7.403678
v -27.875654 18.256464 7.403678
v -16.819035 14.899375 7.403678
v -16.819035 18.256464 7.403678
v -16.819035 14.899375 4.271758
v -16.819035 18.256464 4.271758
v -18.237928 17.434175 7.403677
v -18.237928 15.721663 7.403679
v -26.865192 16.577919 7.403678
v -18.237928 17.434175 8.789867
v -18.237928 15.721663 8.789867
v -27.875654 12.306163 1.678546
v -27.875654 12.306163 -1.678545
v -27.875654 9.174241 -1.678544
v -27.875654 9.174241 1.678546
v -16.819035 9.174241 -1.678545
v -16.819035 9.174241 1.678546
v -16.819035 12.306161 -1.678546
v -16.819035 12.306163 1.678545
v -18.237928 9.174244 0.856257
v -18.237928 9.174241 -0.856256
v -26.865192 9.174241 -0.000001
v -18.237928 7.788053 0.856256
v -18.237928 7.788052 -0.856257
v -27.875654 14.899375 -4.271757
v -27.875654 18.256464 -4.271758
v -27.875654 18.256464 -7.403677
v -27.875654 14.899375 -7.403677
v -16.819035 18.256464 -7.403677
v -16.819035 14.899375 -7.403677
v -16.819035 18.256466 -4.271758
v -16.819035 14.899376 -4.271757
v -18.237928 15.721663 -7.403677
v -18.237928 17.434175 -7.403679
v -26.865192 16.577919 -7.403677
v -18.237928 15.721663 -8.789867
v -18.237928 17.434175 -8.789865
v 35.182327 16.300787 -2.377641
v 6.013268 24.146685 0.000000
v -1.867707 24.145788 0.000000
v 35.192001 10.820062 -2.176937
v -36.196304 19.872852 3.294932
v -36.196304 16.577919 4.661656
v -36.196304 13.282989 3.294932
v -36.196304 11.916265 -0.000000
v -36.196304 13.282989 -3.294932
v -36.196304 19.872852 -3.294932
v -36.196304 16.577921 -4.661656
v -1.922171 15.412262 4.644661
v -25.444029 15.412262 4.644660
v -25.444029 15.412262 4.644660
v -1.922171 21.222580 1.165658
v -25.444029 21.222580 1.165657
v -25.444029 21.222580 1.165657
v -1.922171 17.743576 4.644661
v -25.444029 17.743576 4.644660
v -25.444029 17.743576 4.644660
v -1.922171 21.222580 -1.165656
v -25.444029 21.222578 -1.165657
v -25.444029 21.222578 -1.165657
v -1.922171 15.412265 -4.644659
v -25.444029 15.412265 -4.644660
v -25.444029 15.412265 -4.644660
v -1.922171 17.743576 -4.644659
v -25.444029 17.743576 -4.644660
v -25.444029 17.743576 -4.644660
v -1.922171 11.933259 1.165658
v -25.444029 11.933259 1.165657
v -25.444029 11.933259 1.165657
v -1.922171 11.933261 -1.165656
v -25.444029 11.933259 -1.165656
v -25.444029 11.933259 -1.165656
v -27.881649 16.577919 7.045986
v -27.881649 16.577919 -7.045986
v -27.881649 9.531935 0.000000
v -27.881649 23.623907 0.000000
v -36.196304 21.239574 -0.000000
v -25.444029 20.171501 3.593583
v -25.444029 20.171503 -3.593583
v -25.444029 12.984338 -3.593583
v -25.444029 12.984337 3.593583
v 6.495390 20.826353 4.790948
v 7.010962 20.865368 1.926059
v 7.010962 20.865368 1.926059
v 6.150738 23.170341 -3.213826
v 6.495390 20.826353 -4.790948
v 28.282520 8.951070 4.171462
v -1.867707 8.951070 4.171462
v -1.867707 8.951070 4.171462
v 7.010962 20.865368 -1.926059
v 7.010962 20.865368 -1.926059
v -27.875654 23.981600 1.678545
v -27.875654 23.981600 -1.678545
v -16.819033 23.981600 1.678546
v -16.819033 23.981600 -1.678545
v -27.875654 20.849676 1.678546
v -16.819033 20.849678 1.678547
v -16.819033 20.849678 -1.678544
v -27.875654 20.849678 -1.678545
v 26.712830 20.865368 1.926059
v 6.674054 22.912041 0.000000
v -1.867706 22.955622 -3.338519
v -1.867707 16.559555 -7.548066
v -18.237926 23.981600 -0.856256
v -18.237926 23.981600 0.856258
v -18.237926 25.367788 -0.856255
v -18.237926 25.367788 0.856258
v 6.150738 23.170341 3.213826
v -1.867707 16.559555 7.548066
v -1.867706 22.955622 3.338519
v 20.229727 0.209279 -1.426283
v 15.075895 0.209279 -1.426281
v 20.229727 0.209279 1.465769
v 15.075895 0.209279 1.465773
v 33.990089 6.967597 0.000000
v 33.990089 6.967597 0.000000
v -1.867707 8.951070 -4.171462
v -1.867707 8.951070 -4.171462
v 26.712830 20.865368 -1.926059
v 28.282520 8.951070 -4.171462
v -27.875654 14.899376 7.403678
v -27.875654 18.256464 7.403678
v -16.819035 14.899375 7.403678
v -16.819035 18.256464 7.403678
v -27.875654 14.899375 4.271758
v -16.819035 14.899375 4.271758
v -16.819035 18.256464 4.271758
v -27.875654 18.256466 4.271758
v -18.237928 17.434175 7.403677
v -18.237928 15.721663 7.403679
v -18.237928 17.434175 8.789867
v -18.237928 15.721663 8.789867
v -27.875654 9.174241 -1.678544
v -27.875654 9.174241 1.678546
v -16.819035 9.174241 -1.678545
v -16.819035 9.174241 1.678546
v -27.875654 12.306163 -1.678545
v -16.819035 12.306161 -1.678546
v -16.819035 12.306163 1.678545
v -27.875654 12.306163 1.678546
v -18.237928 9.174244 0.856257
v -18.237928 9.174241 -0.856256
v -18.237928 7.788053 0.856256
v -18.237928 7.788052 -0.856257
v -27.875654 18.256464 -7.403677
v -27.875654 14.899375 -7.403677
v -16.819035 18.256464 -7.403677
v -16.819035 14.899375 -7.403677
v -27.875654 18.256464 -4.271758
v -16.819035 18.256466 -4.271758
v -16.819035 14.899376 -4.271757
v -27.875654 14.899375 -4.271757
v -18.237928 15.721663 -7.403677
v -18.237928 17.434175 -7.403679
v -18.237928 15.721663 -8.789867
v -18.237928 17.434175 -8.789865
v 6.013268 24.146685 0.000000
v -1.867707 24.145788 0.000000
vt 0.568734 0.904449
vt 0.569943 0.889016
vt 0.571242 0.906422
vt 0.503891 0.781270
vt 0.531256 0.781270
vt 0.531256 0.812422
vt 0.531256 0.843705
vt 0.503891 0.843705
vt 0.503891 0.812422
vt 0.503891 0.906187
vt 0.531256 0.906186
vt 0.531256 0.937469
vt 0.540965 0.798144
vt 0.503891 0.750053
vt 0.531256 0.750053
vt 0.503891 0.969011
vt 0.531256 0.969011
vt 0.531256 0.999968
vt 0.746116 0.789146
vt 0.677898 0.804684
vt 0.670828 0.789146
vt 0.677898 0.773489
vt 0.746116 0.773489
vt 0.746116 0.789146
vt 0.677898 0.773489
vt 0.746116 0.773489
vt 0.677898 0.804684
vt 0.670828 0.789146
vt 0.746116 0.789146
vt 0.677898 0.804684
vt 0.670828 0.789146
vt 0.677898 0.773489
vt 0.746116 0.773489
vt 0.746116 0.789146
vt 0.677898 0.773489
vt 0.746116 0.773489
vt 0.677898 0.804636
vt 0.670828 0.789146
vt 0.503891 0.874864
vt 0.531256 0.874864
vt 0.503891 0.937469
vt 0.540965 0.825110
vt 0.540965 0.843708
vt 0.540965 0.890245
vt 0.540965 0.906183
vt 0.540965 0.984923
vt 0.688861 0.833003
vt 0.704079 0.833003
vt 0.696465 0.869742
vt 0.714835 0.854533
vt 0.714835 0.884970
vt 0.704070 0.906482
vt 0.688851 0.906482
vt 0.678095 0.884951
vt 0.678095 0.854515
vt 0.540965 0.863096
vt 0.540965 0.764288
vt 0.540965 0.951068
vt 0.540965 0.924101
vt 0.652956 0.789501
vt 0.631161 0.812960
vt 0.631161 0.765872
vt 0.569943 0.959385
vt 0.631161 0.988224
vt 0.546876 0.988224
vt 0.569943 0.889016
vt 0.627149 0.906422
vt 0.571242 0.906422
vt 0.546876 0.943868
vt 0.654592 0.769239
vt 0.666348 0.753964
vt 0.669746 0.769239
vt 0.571242 0.941896
vt 0.568734 0.943868
vt 0.571360 0.924167
vt 0.715036 0.945356
vt 0.683525 0.964828
vt 0.683525 0.945356
vt 0.715036 0.926113
vt 0.715036 0.945356
vt 0.724631 0.964828
vt 0.715036 0.964828
vt 0.715036 0.964828
vt 0.683525 0.984378
vt 0.683525 0.945356
vt 0.673930 0.964828
vt 0.673930 0.945356
vt 0.656525 0.988224
vt 0.631161 0.959385
vt 0.662334 0.963125
vt 0.546876 0.765872
vt 0.546876 0.812960
vt 0.742498 0.988244
vt 0.736534 0.976596
vt 0.742498 0.976596
vt 0.739516 0.916958
vt 0.742498 0.976596
vt 0.736534 0.976596
vt 0.748385 0.976596
vt 0.730648 0.976596
vt 0.546876 0.812960
vt 0.631161 0.860122
vt 0.546876 0.860122
vt 0.736636 0.832331
vt 0.722879 0.890996
vt 0.722879 0.832331
vt 0.736636 0.832331
vt 0.722879 0.890996
vt 0.736636 0.890996
vt 0.746088 0.832331
vt 0.746088 0.890996
vt 0.746088 0.890996
vt 0.736636 0.832331
vt 0.736636 0.890996
vt 0.736636 0.890996
vt 0.722879 0.832331
vt 0.746088 0.832331
vt 0.631161 0.860122
vt 0.656354 0.823854
vt 0.631161 0.812960
vt 0.652956 0.789501
vt 0.662298 0.796214
vt 0.656525 0.823854
vt 0.669600 0.860123
vt 0.656525 0.859971
vt 0.568294 0.924158
vt 0.568734 0.943868
vt 0.662334 0.885281
vt 0.652956 0.789501
vt 0.631161 0.812960
vt 0.631161 0.888848
vt 0.662334 0.924116
vt 0.656354 0.859971
vt 0.669600 0.824045
vt 0.546876 0.812960
vt 0.546876 0.904449
vt 0.568734 0.904449
vt 0.715036 0.945356
vt 0.683525 0.964828
vt 0.683525 0.945356
vt 0.715036 0.926113
vt 0.715036 0.945356
vt 0.724631 0.964828
vt 0.715036 0.964828
vt 0.715036 0.964828
vt 0.683525 0.984378
vt 0.683525 0.945356
vt 0.673930 0.964828
vt 0.673930 0.945356
vt 0.742498 0.988244
vt 0.736534 0.976596
vt 0.742498 0.976596
vt 0.739516 0.916958
vt 0.742498 0.976596
vt 0.736534 0.976596
vt 0.748385 0.976596
vt 0.730648 0.976596
vt 0.715036 0.945356
vt 0.683525 0.964828
vt 0.683525 0.945356
vt 0.715036 0.926113
vt 0.715036 0.945356
vt 0.724631 0.964828
vt 0.715036 0.964828
vt 0.715036 0.964828
vt 0.683525 0.984378
vt 0.683525 0.964828
vt 0.673930 0.945356
vt 0.683525 0.945356
vt 0.742498 0.988244
vt 0.736534 0.976596
vt 0.742498 0.976596
vt 0.739516 0.916958
vt 0.742498 0.976596
vt 0.736534 0.976596
vt 0.748385 0.976596
vt 0.730648 0.976596
vt 0.715036 0.945356
vt 0.683525 0.964828
vt 0.683525 0.945356
vt 0.715036 0.926113
vt 0.715036 0.945356
vt 0.724631 0.964828
vt 0.715036 0.964828
vt 0.715036 0.964828
vt 0.683525 0.984378
vt 0.683525 0.964828
vt 0.673930 0.945356
vt 0.683525 0.945356
vt 0.742498 0.988244
vt 0.736534 0.976596
vt 0.742498 0.976596
vt 0.739516 0.916958
vt 0.742498 0.976596
vt 0.736534 0.976596
vt 0.748385 0.976596
vt 0.730648 0.976596
vt 0.627149 0.941896
vt 0.571242 0.941896
vt 0.569943 0.959385
vt 0.568294 0.924158
vt 0.665520 0.782079
vt 0.662169 0.784469
vt 0.658818 0.782079
vt 0.736599 0.906435
vt 0.722879 0.890996
vt 0.736636 0.890996
vt 0.503891 0.999968
vt 0.540965 0.781266
vt 0.746116 0.804684
vt 0.746116 0.804684
vt 0.746116 0.804684
vt 0.746116 0.804636
vt 0.540965 0.969015
vt 0.657982 0.753964
vt 0.683525 0.926113
vt 0.724631 0.945356
vt 0.715036 0.984378
vt 0.683525 0.964828
vt 0.736534 0.988244
vt 0.546876 0.924158
vt 0.546876 0.860122
vt 0.683525 0.926113
vt 0.724631 0.945356
vt 0.715036 0.984378
vt 0.683525 0.964828
vt 0.736534 0.988244
vt 0.683525 0.926113
vt 0.724631 0.945356
vt 0.715036 0.984378
vt 0.673930 0.964828
vt 0.736534 0.988244
vt 0.683525 0.926113
vt 0.724631 0.945356
vt 0.715036 0.984378
vt 0.673930 0.964828
vt 0.736534 0.988244
vt 0.722842 0.906435
vt 0.746116 0.757647
vt 0.677898 0.773489
vt 0.677898 0.757647
vt 0.677898 0.804588
vt 0.746116 0.820430
vt 0.677898 0.820430
vt 0.746116 0.757647
vt 0.677898 0.773489
vt 0.677898 0.757647
vt 0.677898 0.804588
vt 0.746116 0.820430
vt 0.677898 0.820430
vt 0.677898 0.757647
vt 0.746116 0.773489
vt 0.677898 0.773489
vt 0.677898 0.757647
vt 0.746116 0.773489
vt 0.677898 0.773489
vt 0.746116 0.804588
vt 0.677898 0.820430
vt 0.677898 0.804588
vt 0.746116 0.804636
vt 0.677898 0.820430
vt 0.677898 0.804636
vt 0.571242 0.906422
vt 0.623291 0.924142
vt 0.571360 0.924167
vt 0.627149 0.906422
vt 0.627149 0.941896
vt 0.571242 0.941896
vt 0.746116 0.773489
vt 0.746116 0.804588
vt 0.746116 0.773489
vt 0.746116 0.804588
vt 0.746116 0.757647
vt 0.746116 0.757647
vt 0.746116 0.820430
vt 0.746116 0.820430
vn 0.9413 0.3039 0.1467
vn 0.9504 0.2572 0.1745
vn 0.9508 0.2701 0.1516
vn -0.2755 -0.6797 0.6797
vn 0.1766 -0.6960 0.6960
vn 0.0994 0.0000 0.9950
vn 0.1766 0.6960 0.6960
vn -0.2755 0.6797 0.6797
vn -0.2756 0.0000 0.9612
vn -0.2755 0.6797 -0.6797
vn 0.1766 0.6960 -0.6960
vn 0.0994 0.0000 -0.9950
vn 0.5917 -0.3127 0.7430
vn -0.2756 -0.9612 0.0000
vn 0.0994 -0.9950 0.0000
vn -0.2755 -0.6797 -0.6797
vn 0.1766 -0.6960 -0.6960
vn 0.0000 0.0000 1.0000
vn 0.0000 0.8996 0.4367
vn 0.0000 -0.8996 0.4367
vn 0.0000 0.0000 -1.0000
vn 0.0000 0.8996 -0.4367
vn 0.0000 -0.8996 -0.4367
vn 0.0000 -1.0000 0.0000
vn 0.0000 -0.4367 0.8996
vn 0.0000 -0.4367 -0.8996
vn 0.0000 1.0000 0.0000
vn 0.0000 0.4367 0.8996
vn 0.0000 0.4367 -0.8996
vn -0.2756 0.9612 0.0000
vn 0.0994 0.9950 0.0000
vn -0.2756 0.0000 -0.9612
vn 0.5917 0.3127 0.7430
vn 0.6268 0.5510 0.5510
vn 0.5917 0.7430 -0.3127
vn 0.6268 0.5510 -0.5510
vn 0.5917 -0.7430 -0.3127
vn -0.7972 -0.4268 -0.4268
vn -0.7974 -0.6035 0.0000
vn -1.0000 0.0000 0.0000
vn -0.7972 -0.4268 0.4268
vn -0.7974 0.0000 0.6035
vn -0.7972 0.4268 0.4268
vn -0.7974 0.6035 0.0000
vn -0.7972 0.4268 -0.4268
vn -0.7974 0.0000 -0.6035
vn 0.5917 0.7430 0.3127
vn 0.5917 -0.7430 0.3127
vn 0.5917 -0.3127 -0.7430
vn 0.5917 0.3127 -0.7430
vn -0.3283 -0.9446 0.0000
vn -0.1267 -0.9919 0.0000
vn -0.0011 0.7113 -0.7028
vn 0.2569 0.0974 -0.9615
vn -0.0018 0.0806 -0.9967
vn -0.0011 0.7113 0.7028
vn 0.0164 0.9998 0.0062
vn 0.0000 0.9999 0.0136
vn -0.0052 0.7873 -0.6166
vn 0.9508 0.2701 -0.1516
vn 0.9413 0.3039 -0.1467
vn 0.9168 0.3993 0.0000
vn 0.0000 0.7071 0.7071
vn 0.0000 0.7071 -0.7071
vn 1.0000 0.0000 0.0000
vn 0.8270 0.0476 -0.5601
vn 0.2044 0.8301 -0.5188
vn 0.8717 0.4900 0.0000
vn -0.3074 0.9516 0.0000
vn -0.1814 0.7072 0.6833
vn -0.1814 0.7072 -0.6833
vn -0.0988 0.0000 0.9951
vn -0.0988 0.0000 -0.9951
vn 0.0001 -0.4056 0.9140
vn 0.2569 0.0974 0.9615
vn -0.0018 0.0806 0.9967
vn 0.5659 0.2522 -0.7849
vn -0.5659 -0.2522 -0.7849
vn -0.7366 -0.3283 -0.5912
vn 0.5659 0.2522 0.7849
vn -0.5659 -0.2522 0.7849
vn 0.7366 0.3283 0.5912
vn 0.7366 0.3283 -0.5912
vn -0.7366 -0.3283 0.5912
vn 0.7838 -0.1858 -0.5926
vn 0.2071 -0.4246 -0.8813
vn 0.1837 -0.5264 -0.8301
vn 0.7127 -0.7015 0.0000
vn 0.7838 -0.1858 0.5926
vn 0.8270 0.0476 0.5601
vn -0.0163 0.9998 0.0000
vn -0.0119 0.7964 -0.6046
vn 0.1837 -0.5264 0.8301
vn 0.2071 -0.4246 0.8813
vn 0.2044 0.8301 0.5188
vn 0.0001 -0.4056 -0.9140
vn -0.0052 0.7873 0.6166
vn -0.0119 0.7964 0.6046
vn 0.0000 -0.7071 0.7071
vn -0.3074 0.0000 0.9516
vn -0.1814 -0.6833 0.7072
vn -0.1814 0.6833 0.7072
vn -0.0988 -0.9951 0.0000
vn -0.0988 0.9951 0.0000
vn 0.0000 -0.7071 -0.7071
vn -0.3074 -0.9516 0.0000
vn -0.1814 -0.7072 -0.6833
vn -0.1814 -0.7072 0.6833
vn -0.3074 0.0000 -0.9516
vn -0.1814 0.6833 -0.7072
vn -0.1814 -0.6833 -0.7072
vn 0.0164 0.9998 -0.0062
vn 0.0000 0.9999 -0.0136
vn 0.9504 0.2572 -0.1745
vn 0.8816 0.4718 0.0000
vn 0.6268 -0.5510 0.5510
vn 0.6268 -0.5510 -0.5510
vn -0.0001 1.0000 0.0000
vn 0.0000 0.3973 -0.9177
vn 0.0000 0.3973 0.9177
vn 0.0000 -0.9177 -0.3973
vn 0.0000 -0.9177 0.3973
vn 0.0000 0.9177 0.3973
vn 0.0000 -0.3973 0.9177
vn 0.0000 -0.3973 -0.9177
vn 0.0000 0.9177 -0.3973
vn 0.0000 0.6853 0.7282
vn 0.2348 0.9720 0.0000
vn 0.4286 0.7927 0.4334
vn 0.4286 0.7927 -0.4334
vn 0.0000 0.6853 -0.7282
usemtl mtl_wpn_mega
s 1
f 67/1/1 177/2/2 178/3/3
f 41/4/4 40/5/5 168/6/6
f 34/7/7 137/8/8 138/9/9
f 37/10/10 36/11/11 169/12/12
f 40/5/5 146/13/13 168/6/6
f 17/14/14 31/15/15 40/5/5
f 39/16/16 38/17/17 31/18/15
f 20/19/18 152/20/19 23/21/18
f 20/19/18 145/22/20 144/23/20
f 10/24/21 160/25/22 159/26/22
f 10/24/21 158/27/23 33/28/21
f 15/29/24 163/30/25 170/31/24
f 15/29/24 166/32/26 165/33/26
f 6/34/27 148/35/28 147/36/28
f 6/34/27 155/37/29 171/38/27
f 172/39/30 25/40/31 36/11/11
f 1/41/32 169/12/12 38/17/17
f 25/40/31 172/39/30 137/8/8
f 34/7/7 26/42/33 44/43/34
f 36/11/11 27/44/35 50/45/36
f 38/17/17 167/46/37 31/18/15
f 35/47/38 8/48/39 42/49/40
f 142/50/41 143/51/42 42/49/40
f 141/52/43 140/53/44 42/49/40
f 8/48/39 142/50/41 42/49/40
f 140/53/44 139/54/45 42/49/40
f 139/54/45 21/55/46 42/49/40
f 143/51/42 141/52/43 42/49/40
f 21/55/46 35/47/38 42/49/40
f 24/56/47 34/7/7 44/43/34
f 30/57/48 40/5/5 31/15/15
f 28/58/49 38/17/17 169/12/12
f 29/59/50 36/11/11 50/45/36
f 211/60/51 54/61/52 57/62/52
f 55/63/53 56/64/54 198/65/55
f 52/66/56 195/67/57 179/68/58
f 197/69/59 55/63/53 198/65/55
f 5/70/40 184/71/40 4/72/40
f 186/73/60 180/74/61 68/75/62
f 62/76/63 188/77/64 187/78/63
f 187/78/63 64/79/18 62/76/63
f 189/80/65 65/81/65 190/82/65
f 63/83/64 194/84/21 188/77/64
f 60/85/40 58/86/40 191/87/40
f 133/88/66 13/89/67 89/90/68
f 9/91/24 54/61/52 183/92/24
f 200/93/65 201/94/65 202/95/65
f 76/96/69 78/97/70 77/98/71
f 75/99/72 78/97/70 76/96/69
f 74/100/73 76/96/69 77/98/71
f 7/101/74 53/102/75 204/103/76
f 79/104/77 207/105/78 80/106/79
f 83/107/80 209/108/81 208/109/82
f 79/110/77 208/109/82 206/111/83
f 209/112/81 80/113/79 207/114/78
f 79/104/77 206/115/83 207/105/78
f 83/107/80 84/116/84 209/108/81
f 79/110/77 83/107/80 208/109/82
f 209/112/81 84/117/84 80/113/79
f 56/118/54 136/119/85 215/120/86
f 210/121/87 136/119/85 92/122/88
f 91/123/89 133/124/66 88/125/90
f 197/69/59 252/126/91 73/127/92
f 88/125/90 133/124/66 89/128/68
f 93/129/93 91/123/89 182/130/94
f 51/131/95 89/132/68 13/89/67
f 88/125/90 51/131/95 53/102/75
f 133/133/66 136/119/85 56/118/54
f 88/125/90 53/102/75 91/123/89
f 91/123/89 92/122/88 136/134/85
f 53/102/75 52/66/56 204/103/76
f 213/135/96 56/118/54 215/120/86
f 205/136/97 52/66/56 203/137/98
f 53/102/75 182/130/94 91/123/89
f 98/138/99 217/139/63 216/140/99
f 216/140/99 100/141/24 98/138/99
f 218/142/65 101/143/65 219/144/65
f 99/145/63 223/146/27 217/139/63
f 96/147/40 94/148/40 220/149/40
f 225/150/65 226/151/65 227/152/65
f 104/153/100 106/154/101 105/155/102
f 103/156/103 106/154/101 104/153/100
f 102/157/104 104/153/100 105/155/102
f 111/158/105 229/159/99 228/160/105
f 228/160/105 113/161/21 111/158/105
f 230/162/65 114/163/65 231/164/65
f 112/165/99 235/166/18 229/159/99
f 110/167/40 232/168/40 109/169/40
f 237/170/65 238/171/65 239/172/65
f 117/173/106 119/174/107 118/175/108
f 116/176/73 119/174/107 117/173/106
f 115/177/72 117/173/106 118/175/108
f 124/178/64 241/179/105 240/180/64
f 240/180/64 126/181/27 124/178/64
f 242/182/65 127/183/65 243/184/65
f 125/185/105 247/186/24 241/179/105
f 123/187/40 244/188/40 122/189/40
f 249/190/65 250/191/65 251/192/65
f 130/193/109 132/194/110 131/195/111
f 129/196/104 132/194/110 130/193/109
f 128/197/103 130/193/109 131/195/111
f 252/126/91 205/136/97 203/137/98
f 214/198/112 55/63/53 185/199/113
f 51/131/95 214/198/112 195/67/57
f 186/73/60 181/200/114 180/74/61
f 134/201/115 67/1/1 68/75/62
f 66/202/40 253/203/40 72/204/40
f 66/202/40 5/70/40 4/72/40
f 82/205/24 85/206/24 86/207/24
f 180/74/61 134/201/115 68/75/62
f 67/1/1 178/3/3 68/75/62
f 34/7/7 25/40/31 137/8/8
f 37/10/10 172/39/30 36/11/11
f 168/6/6 34/7/7 138/9/9
f 138/9/9 41/4/4 168/6/6
f 41/4/4 17/14/14 40/5/5
f 17/208/14 39/16/16 31/18/15
f 39/16/16 1/41/32 38/17/17
f 1/41/32 37/10/10 169/12/12
f 40/5/5 46/209/116 146/13/13
f 20/19/18 150/210/19 152/20/19
f 20/19/18 23/21/18 145/22/20
f 10/24/21 33/28/21 160/25/22
f 10/24/21 156/211/23 158/27/23
f 15/29/24 162/212/25 163/30/25
f 15/29/24 170/31/24 166/32/26
f 6/34/27 171/38/27 148/35/28
f 6/34/27 153/213/29 155/37/29
f 34/7/7 168/6/6 26/42/33
f 36/11/11 25/40/31 27/44/35
f 38/17/17 48/214/117 167/46/37
f 24/56/47 25/40/31 34/7/7
f 30/57/48 46/209/116 40/5/5
f 28/58/49 48/214/117 38/17/17
f 29/59/50 169/12/12 36/11/11
f 55/63/53 13/89/67 56/64/54
f 52/66/56 51/131/95 195/67/57
f 197/69/59 73/127/92 55/63/53
f 5/70/40 212/215/40 184/71/40
f 62/76/63 63/83/64 188/77/64
f 187/78/63 59/216/18 64/79/18
f 189/80/65 192/217/65 65/81/65
f 63/83/64 193/218/21 194/84/21
f 60/85/40 61/219/40 58/86/40
f 133/88/66 56/64/54 13/89/67
f 9/91/24 57/62/52 54/61/52
f 200/93/65 199/220/65 201/94/65
f 7/101/74 182/130/94 53/102/75
f 210/121/87 215/120/86 136/119/85
f 91/123/89 136/134/85 133/124/66
f 197/69/59 135/221/118 252/126/91
f 93/129/93 92/122/88 91/123/89
f 88/125/90 89/128/68 51/131/95
f 53/102/75 51/131/95 52/66/56
f 213/135/96 198/222/55 56/118/54
f 205/136/97 204/103/76 52/66/56
f 98/138/99 99/145/63 217/139/63
f 216/140/99 95/223/24 100/141/24
f 218/142/65 221/224/65 101/143/65
f 99/145/63 222/225/27 223/146/27
f 96/147/40 97/226/40 94/148/40
f 225/150/65 224/227/65 226/151/65
f 111/158/105 112/165/99 229/159/99
f 228/160/105 108/228/21 113/161/21
f 230/162/65 233/229/65 114/163/65
f 112/165/99 234/230/18 235/166/18
f 110/167/40 107/231/40 232/168/40
f 237/170/65 236/232/65 238/171/65
f 124/178/64 125/185/105 241/179/105
f 240/180/64 121/233/27 126/181/27
f 242/182/65 245/234/65 127/183/65
f 125/185/105 246/235/24 247/186/24
f 123/187/40 120/236/40 244/188/40
f 249/190/65 248/237/65 250/191/65
f 252/126/91 135/221/118 205/136/97
f 214/198/112 13/89/67 55/63/53
f 51/131/95 13/89/67 214/198/112
f 66/202/40 72/204/40 5/70/40
f 82/205/24 81/238/24 85/206/24
usemtl mtl_wpn_mega_emissive
f 49/239/64 161/240/119 174/241/64
f 151/242/120 43/243/63 173/244/63
f 47/245/105 32/246/121 175/247/105
f 164/248/122 45/249/99 176/250/99
f 173/251/63 2/252/123 149/253/123
f 176/254/99 19/255/124 22/256/124
f 14/257/125 175/258/105 157/259/125
f 3/260/126 174/261/64 154/262/126
f 70/263/127 69/264/128 196/265/27
f 71/266/129 90/267/130 69/264/128
f 69/264/128 87/268/131 196/265/27
f 49/239/64 16/269/119 161/240/119
f 151/242/120 18/270/120 43/243/63
f 47/245/105 12/271/121 32/246/121
f 164/248/122 11/272/122 45/249/99
f 173/251/63 43/273/63 2/252/123
f 176/254/99 45/274/99 19/255/124
f 14/257/125 47/275/105 175/258/105
f 3/260/126 49/276/64 174/261/64
f 70/263/127 71/266/129 69/264/128
f 69/264/128 90/267/130 87/268/131
