# Blender v2.79 (sub 0) OBJ File: 'weapon_drops_scaling.blend'
# www.blender.org
mtllib SuperShotgun.mtl
o gun_1
v -36.269409 17.018560 1.744781
v 5.273128 17.214392 1.938652
v -36.269409 13.493559 1.744781
v -36.269409 15.256060 3.507282
v 5.273128 13.297728 1.938653
v 5.273127 15.256060 3.896986
v 7.884111 14.499605 1.938653
v -20.206293 15.250936 -0.000003
v -20.206293 14.662255 2.996249
v -20.206293 10.176330 -0.000003
v 35.204323 0.038157 0.000005
v 35.410023 2.389286 2.176116
v 36.313194 12.712577 0.000005
v -23.676556 13.020835 -0.000004
v 5.213052 10.176330 0.000001
v 14.585863 10.216157 2.203400
v 14.785300 12.495754 0.000002
v 19.570932 14.602949 0.000003
v 36.134270 10.667519 2.187570
v 19.790253 12.714689 2.214998
v 5.241169 15.250936 0.000001
v 5.241170 14.662255 2.996253
v -20.206293 11.840914 2.829790
v 5.147313 11.840914 2.829794
v -36.269402 15.250936 -0.000005
v 5.281874 15.250936 0.000001
v 14.041302 7.880034 0.000002
v -36.269409 17.018560 -1.744792
v 5.273128 17.214392 -1.938650
v -36.269409 13.493559 -1.744792
v -36.269409 15.256060 -3.507293
v 5.273128 13.297728 -1.938651
v 5.273129 15.256060 -3.896985
v 7.884111 14.499605 -1.938650
v -20.206293 14.662255 -2.996255
v 35.410023 2.389286 -2.176105
v 14.585863 10.216157 -2.203395
v 36.134270 10.667519 -2.187559
v 19.790253 12.714689 -2.214992
v 5.241171 14.662255 -2.996251
v -20.206293 11.840914 -2.829796
v 5.147314 11.840914 -2.829792
v 19.174807 5.977835 0.000003
v 19.637167 8.317596 2.196781
v 19.637167 8.317596 -2.196775
v 32.533367 1.027871 0.000005
v 33.589993 13.020054 0.000005
v 32.741692 3.392193 -2.179602
v 33.412746 11.008404 -2.192127
v 32.741684 3.392195 2.179612
v 33.412746 11.008404 2.192137
v -36.269402 15.250936 -0.000005
v -36.269402 15.250936 -0.000005
v -36.269402 15.250936 -0.000005
v -36.269402 15.250936 -0.000005
v -36.269402 15.250936 -0.000005
v -36.269409 17.018560 1.744781
v -36.269409 15.256060 3.507282
v -36.269409 13.493559 1.744781
v -36.269409 15.256060 -3.507293
v -36.269409 13.493559 -1.744792
v -36.269409 17.018560 -1.744792
v 5.281874 15.250936 0.000001
vt 0.482523 0.434217
vt 0.251869 0.457648
vt 0.251869 0.434217
vt 0.251869 0.410787
vt 0.482523 0.434217
vt 0.251869 0.434217
vt 0.251869 0.410787
vt 0.251869 0.434217
vt 0.482523 0.410957
vt 0.251869 0.387119
vt 0.487443 0.357215
vt 0.478611 0.338059
vt 0.496274 0.338059
vt 0.482523 0.410957
vt 0.482523 0.387460
vt 0.497149 0.410957
vt 0.478565 0.270610
vt 0.487443 0.253947
vt 0.496321 0.270610
vt 0.264442 0.279967
vt 0.264442 0.299804
vt 0.254319 0.320825
vt 0.264442 0.258510
vt 0.264442 0.320826
vt 0.395352 0.320826
vt 0.417150 0.303646
vt 0.417150 0.320826
vt 0.395352 0.288511
vt 0.417150 0.282412
vt 0.476631 0.303504
vt 0.466808 0.273339
vt 0.476631 0.271491
vt 0.355204 0.320826
vt 0.355204 0.279967
vt 0.355204 0.299804
vt 0.498160 0.387292
vt 0.484471 0.359914
vt 0.498160 0.359914
vt 0.355204 0.258510
vt 0.395352 0.258510
vt 0.395352 0.383386
vt 0.355204 0.383386
vt 0.355204 0.361682
vt 0.251869 0.457648
vt 0.482523 0.457478
vt 0.251869 0.481145
vt 0.482523 0.481145
vt 0.482523 0.457478
vt 0.497149 0.457478
vt 0.498160 0.387292
vt 0.484471 0.359914
vt 0.498160 0.359914
vt 0.417150 0.258416
vt 0.264442 0.361682
vt 0.264442 0.341845
vt 0.264442 0.383386
vt 0.417150 0.338008
vt 0.395352 0.353141
vt 0.466808 0.320826
vt 0.466808 0.338126
vt 0.417150 0.359241
vt 0.355204 0.341845
vt 0.417150 0.383386
vt 0.466808 0.368315
vt 0.466808 0.383386
vt 0.476631 0.320826
vt 0.476631 0.338150
vt 0.476631 0.370163
vt 0.476631 0.383386
vt 0.466808 0.258088
vt 0.466808 0.303527
vt 0.484471 0.387292
vt 0.251869 0.434217
vt 0.484471 0.387292
vt 0.476631 0.258023
vn 0.2845 0.0262 0.9583
vn -0.0047 1.0000 0.0053
vn 0.0000 0.7025 0.7117
vn -0.0047 1.0000 -0.0053
vn 0.2845 0.0262 -0.9583
vn 0.0000 0.7025 -0.7117
vn -0.0047 -1.0000 -0.0039
vn 0.0000 -0.7046 -0.7096
vn 0.1937 -0.9810 -0.0003
vn -0.0094 0.0000 0.9999
vn 0.3956 -0.9184 0.0000
vn 0.5587 -0.3860 -0.7341
vn 0.5587 -0.3860 0.7341
vn 0.3368 0.9416 -0.0012
vn 0.2806 0.0273 0.9594
vn 0.9777 -0.2100 -0.0011
vn 0.6573 0.2444 -0.7129
vn 0.6599 0.7514 0.0000
vn 0.6573 0.2444 0.7129
vn -0.3214 -0.4867 0.8123
vn -0.3311 0.5690 0.7527
vn -0.9999 0.0115 0.0000
vn -0.3064 -0.9519 0.0000
vn -0.2728 0.9621 0.0000
vn -0.0040 1.0000 0.0000
vn -0.0752 0.4639 0.8827
vn -0.1473 0.9891 0.0000
vn -0.0665 -0.0689 0.9954
vn -0.1277 -0.3450 0.9298
vn -0.1291 -0.3485 0.9284
vn 0.1377 0.9904 0.0000
vn -0.0299 -0.4851 0.8739
vn 0.1193 0.6290 0.7681
vn -1.0000 0.0000 0.0000
vn -0.1341 -0.9910 0.0000
vn -0.2456 -0.9694 0.0000
vn -0.0299 -0.4851 -0.8739
vn -0.0047 -1.0000 0.0039
vn 0.1937 -0.9810 0.0003
vn -0.0094 0.0000 -0.9999
vn 0.2806 0.0273 -0.9594
vn 0.3368 0.9416 0.0012
vn 0.9777 -0.2100 0.0011
vn -0.3489 -0.9371 0.0000
vn -0.3214 -0.4867 -0.8123
vn -0.3311 0.5690 -0.7527
vn -0.0752 0.4639 -0.8827
vn -0.0665 -0.0689 -0.9954
vn 0.1181 0.9930 0.0000
vn 0.0497 0.3966 -0.9166
vn -0.1277 -0.3450 -0.9298
vn 0.1193 0.6290 -0.7681
vn -0.1291 -0.3485 -0.9284
vn -0.3482 -0.9374 0.0000
vn 0.0497 0.3966 0.9166
vn 0.0000 -0.7046 0.7096
usemtl mtl_wpn_mega
s 1
f 26/1/1 28/2/2 54/3/3
f 57/4/4 63/5/5 52/6/6
f 63/5/5 59/7/7 53/8/8
f 5/9/9 58/10/10 59/7/7
f 11/11/11 36/12/12 12/13/13
f 2/14/14 6/15/15 7/16/16
f 63/5/5 2/14/14 7/16/16
f 6/15/15 5/9/9 7/16/16
f 38/17/17 13/18/18 19/19/19
f 23/20/20 9/21/21 14/22/22
f 10/23/23 23/20/20 14/22/22
f 9/21/21 8/24/24 14/22/22
f 17/25/25 20/26/26 18/27/27
f 20/26/26 16/28/28 44/29/29
f 19/30/19 50/31/30 12/32/13
f 9/21/21 21/33/31 8/24/24
f 24/34/32 9/21/21 23/20/20
f 10/23/23 24/34/32 23/20/20
f 22/35/33 24/34/32 16/28/28
f 5/9/9 63/5/5 7/16/16
f 4/36/34 56/37/34 3/38/34
f 15/39/35 27/40/36 24/34/32
f 27/41/36 15/42/35 42/43/37
f 2/14/14 58/10/10 6/15/15
f 26/1/1 30/44/38 32/45/39
f 32/45/39 31/46/40 33/47/41
f 29/48/42 34/49/43 33/47/41
f 26/1/1 34/49/43 29/48/42
f 33/47/41 34/49/43 32/45/39
f 32/45/39 34/49/43 26/1/1
f 55/50/34 60/51/34 61/52/34
f 38/17/17 12/13/13 36/12/12
f 43/53/44 50/31/30 44/29/29
f 41/54/45 14/22/22 35/55/46
f 10/56/23 14/22/22 41/54/45
f 35/55/46 14/22/22 8/24/24
f 17/25/25 39/57/47 37/58/48
f 20/26/26 47/59/49 18/27/27
f 49/60/50 45/61/51 39/57/47
f 21/33/31 35/55/46 8/24/24
f 35/55/46 42/43/37 41/54/45
f 10/56/23 42/43/37 15/42/35
f 40/62/52 37/58/48 42/43/37
f 37/58/48 27/41/36 42/43/37
f 27/41/36 45/61/51 43/63/44
f 27/40/36 44/29/29 16/28/28
f 37/58/48 39/57/47 45/61/51
f 43/63/44 48/64/53 46/65/54
f 47/59/49 39/57/47 18/27/27
f 27/40/36 16/28/28 24/34/32
f 49/60/50 13/66/18 38/67/17
f 46/65/54 36/68/12 11/69/11
f 48/64/53 38/67/17 36/68/12
f 46/70/54 12/32/13 50/31/30
f 51/71/55 44/29/29 50/31/30
f 51/71/55 13/66/18 47/59/49
f 22/35/33 17/25/25 21/33/31
f 31/46/40 29/48/42 33/47/41
f 40/62/52 17/25/25 37/58/48
f 26/1/1 29/48/42 28/2/2
f 57/4/4 2/14/14 63/5/5
f 63/5/5 5/9/9 59/7/7
f 5/9/9 6/15/15 58/10/10
f 17/25/25 16/28/28 20/26/26
f 19/30/19 51/71/55 50/31/30
f 9/21/21 22/35/33 21/33/31
f 24/34/32 22/35/33 9/21/21
f 10/23/23 15/39/35 24/34/32
f 4/36/34 1/72/34 56/37/34
f 2/14/14 57/4/4 58/10/10
f 26/1/1 25/73/56 30/44/38
f 32/45/39 30/44/38 31/46/40
f 55/50/34 62/74/34 60/51/34
f 38/17/17 19/19/19 12/13/13
f 43/53/44 46/70/54 50/31/30
f 17/25/25 18/27/27 39/57/47
f 20/26/26 51/71/55 47/59/49
f 49/60/50 48/64/53 45/61/51
f 21/33/31 40/62/52 35/55/46
f 35/55/46 40/62/52 42/43/37
f 10/56/23 41/54/45 42/43/37
f 27/41/36 37/58/48 45/61/51
f 27/40/36 43/53/44 44/29/29
f 43/63/44 45/61/51 48/64/53
f 47/59/49 49/60/50 39/57/47
f 49/60/50 47/59/49 13/66/18
f 46/65/54 48/64/53 36/68/12
f 48/64/53 49/60/50 38/67/17
f 46/70/54 11/75/11 12/32/13
f 51/71/55 20/26/26 44/29/29
f 51/71/55 19/30/19 13/66/18
f 22/35/33 16/28/28 17/25/25
f 31/46/40 28/2/2 29/48/42
f 40/62/52 21/33/31 17/25/25
