# Blender v2.79 (sub 0) OBJ File: 'ammo_drops.blend'
# www.blender.org
mtllib Bullets.mtl
o Cube.015
v -1.500000 0.000000 0.500000
v 1.500000 0.000000 0.500000
v -1.500001 2.000000 0.500000
v 1.500000 2.000000 -0.500000
v 1.500000 2.000000 0.500000
v 1.500000 0.000000 -0.500000
v -1.499999 0.000000 -0.500000
v -1.500000 2.000000 -0.500000
v -1.500000 0.000000 0.500000
v -1.500000 0.000000 0.500000
v 1.500000 0.000000 0.500000
v 1.500000 0.000000 0.500000
v -1.500001 2.000000 0.500000
v -1.500001 2.000000 0.500000
v 1.500000 2.000000 0.500000
v 1.500000 2.000000 0.500000
v 1.500000 2.000000 -0.500000
v 1.500000 2.000000 -0.500000
v 1.500000 0.000000 -0.500000
v 1.500000 0.000000 -0.500000
v -1.499999 0.000000 -0.500000
v -1.499999 0.000000 -0.500000
v -1.500000 2.000000 -0.500000
v -1.500000 2.000000 -0.500000
vt 0.872996 0.003902
vt 0.872996 0.120871
vt 0.843794 0.120871
vt 0.843794 0.003881
vt 0.841806 0.003940
vt 0.841806 0.120924
vt 0.752021 0.120924
vt 0.752021 0.003940
vt 0.752021 0.183393
vt 0.841790 0.183393
vt 0.841790 0.124828
vt 0.752021 0.124828
vt 0.841790 0.187388
vt 0.841790 0.245871
vt 0.752023 0.245871
vt 0.752023 0.187388
vt 0.841790 0.003940
vt 0.841790 0.120909
vt 0.752021 0.120909
vt 0.752021 0.003940
vt 0.843794 0.128940
vt 0.843794 0.245880
vt 0.872996 0.245880
vt 0.872996 0.128940
vn -1.0000 0.0000 0.0000
vn 0.0000 0.0000 1.0000
vn 0.0000 1.0000 0.0000
vn 0.0000 -1.0000 0.0000
vn 0.0000 0.0000 -1.0000
vn 1.0000 0.0000 0.0000
usemtl mtl_wpn_mega
s 1
f 10/1/1 13/2/1 23/3/1 22/4/1
f 11/5/2 15/6/2 14/7/2 9/8/2
f 3/9/3 16/10/3 17/11/3 24/12/3
f 1/13/4 21/14/4 19/15/4 12/16/4
f 7/17/5 8/18/5 18/19/5 20/20/5
f 6/21/6 4/22/6 5/23/6 2/24/6
