# Blender v2.79 (sub 0) OBJ File: 'ammo_drops.blend'
# www.blender.org
mtllib EnergyCell.mtl
o Cylinder.028_Cylinder.025
v 0.661349 0.816800 0.000000
v 0.661349 1.983200 0.000000
v -0.661349 0.816800 -0.000000
v -0.661349 1.983200 -0.000000
v 0.727484 2.048000 0.000000
v -0.727484 2.048000 -0.000000
v 0.727484 2.480000 0.000000
v -0.727484 2.480000 -0.000000
v 0.363742 2.588000 0.000000
v -0.363742 2.588000 -0.000000
v 0.363742 2.804000 0.000000
v -0.363742 2.804000 -0.000000
v 0.727484 0.752000 0.000000
v -0.727484 0.752000 -0.000000
v 0.727484 0.320000 0.000000
v -0.727484 0.320000 -0.000000
v 0.363742 0.212000 0.000000
v -0.363742 0.212000 -0.000000
v 0.363742 -0.004000 0.000000
v -0.363742 -0.004000 -0.000000
v 0.363707 2.480000 -0.630755
v -0.363707 0.752000 0.630755
v 0.181854 2.804000 0.315377
v -0.330643 1.983200 0.573413
v -0.363707 2.048000 0.630755
v 0.181854 2.588000 0.315377
v -0.363707 2.480000 0.630755
v 0.363707 2.048000 -0.630755
v -0.181854 2.588000 0.315377
v 0.363707 2.480000 0.630755
v -0.181854 2.804000 0.315377
v -0.330643 0.816800 0.573413
v 0.363707 2.048000 0.630755
v -0.363707 0.320000 0.630755
v 0.363707 0.320000 -0.630755
v -0.181854 0.212000 0.315377
v 0.330643 1.983200 0.573413
v -0.181854 -0.004000 0.315377
v 0.363707 0.320000 0.630755
v 0.181854 0.212000 0.315377
v 0.330643 1.983200 -0.573413
v 0.181854 -0.004000 0.315377
v 0.330643 0.816800 0.573413
v 0.363707 0.752000 -0.630755
v 0.363707 0.752000 0.630755
v -0.181854 2.804000 -0.315377
v 0.181854 2.588000 -0.315377
v 0.181854 2.804000 -0.315377
v 0.181854 0.212000 -0.315377
v 0.181854 -0.004000 -0.315377
v -0.181854 2.588000 -0.315377
v 0.330643 0.816800 -0.573413
v -0.330643 1.983200 -0.573413
v -0.363707 2.480000 -0.630755
v -0.363707 0.320000 -0.630755
v -0.363707 2.048000 -0.630755
v -0.363707 0.752000 -0.630755
v -0.181854 0.212000 -0.315377
v -0.181854 -0.004000 -0.315377
v -0.330643 0.816800 -0.573413
vt 0.582733 0.062458
vt 0.582733 0.058570
vt 0.602869 0.058570
vt 0.602869 0.062458
vt 0.542256 0.062458
vt 0.542256 0.058570
vt 0.562391 0.058570
vt 0.562391 0.062458
vt 0.542256 0.144598
vt 0.562391 0.144598
vt 0.562391 0.148444
vt 0.542256 0.148444
vt 0.542256 0.031367
vt 0.562391 0.031367
vt 0.582733 0.175934
vt 0.602869 0.175934
vt 0.597835 0.191856
vt 0.587767 0.191856
vt 0.582733 0.144598
vt 0.602869 0.144598
vt 0.602869 0.148444
vt 0.582733 0.148444
vt 0.522127 0.144598
vt 0.522127 0.148444
vt 0.622796 0.144598
vt 0.622796 0.148444
vt 0.597835 0.203393
vt 0.587767 0.203393
vt 0.527159 0.191856
vt 0.537224 0.191856
vt 0.537224 0.203393
vt 0.527159 0.203393
vt 0.622796 0.175934
vt 0.542256 0.175934
vt 0.562391 0.175934
vt 0.557363 0.191856
vt 0.547295 0.191856
vt 0.617820 0.191856
vt 0.607856 0.191856
vt 0.617820 0.203393
vt 0.607856 0.203393
vt 0.582733 0.031367
vt 0.587767 0.015445
vt 0.597835 0.015445
vt 0.602869 0.031367
vt 0.622796 0.031367
vt 0.622796 0.058570
vt 0.587767 0.004489
vt 0.597835 0.004489
vt 0.607856 0.015445
vt 0.607856 0.004489
vt 0.617820 0.004489
vt 0.617820 0.015445
vt 0.622796 0.062458
vt 0.557363 0.203393
vt 0.547295 0.203393
vt 0.522127 0.175934
vt 0.567470 0.015445
vt 0.567470 0.004489
vt 0.577642 0.004489
vt 0.577642 0.015445
vt 0.589093 0.226603
vt 0.567058 0.226603
vt 0.572567 0.207498
vt 0.583583 0.207498
vt 0.567470 0.191856
vt 0.577642 0.191856
vt 0.577642 0.203393
vt 0.567470 0.203393
vt 0.522127 0.031367
vt 0.522127 0.058570
vt 0.522127 0.062458
vt 0.527159 0.004489
vt 0.537224 0.004489
vt 0.537224 0.015445
vt 0.527159 0.015445
vt 0.502005 0.062458
vt 0.502005 0.144598
vt 0.502005 0.058570
vt 0.502005 0.031367
vt 0.507030 0.015445
vt 0.507030 0.004489
vt 0.517091 0.004489
vt 0.517091 0.015445
vt 0.502005 0.175934
vt 0.517091 0.191856
vt 0.507030 0.191856
vt 0.517091 0.203393
vt 0.507030 0.203393
vt 0.502005 0.148444
vt 0.547295 0.015445
vt 0.557363 0.015445
vt 0.557896 0.226603
vt 0.535861 0.226603
vt 0.541370 0.207498
vt 0.552386 0.207498
vt 0.547295 0.004489
vt 0.557363 0.004489
vt 0.583583 0.245708
vt 0.572567 0.245708
vt 0.552386 0.245708
vt 0.541370 0.245708
vn -0.4492 0.4403 0.7774
vn -0.4686 0.3493 0.8114
vn 0.4686 0.3493 0.8114
vn 0.4492 0.4403 0.7774
vn -0.4492 0.4403 -0.7774
vn -0.4686 0.3493 -0.8114
vn -0.9370 0.3492 0.0000
vn -0.8980 0.4400 0.0000
vn -0.4492 -0.4403 -0.7774
vn -0.8980 -0.4400 0.0000
vn -0.9370 -0.3492 0.0000
vn -0.4686 -0.3493 -0.8114
vn -0.4270 -0.5207 -0.7392
vn -0.8537 -0.5207 0.0000
vn -0.4270 0.5207 0.7392
vn 0.4270 0.5207 0.7392
vn 0.3522 0.7103 0.6094
vn -0.3522 0.7103 0.6094
vn -0.4492 -0.4403 0.7774
vn 0.4492 -0.4403 0.7774
vn 0.4686 -0.3493 0.8114
vn -0.4686 -0.3493 0.8114
vn 0.4492 -0.4403 -0.7774
vn 0.4686 -0.3493 -0.8114
vn 0.8980 -0.4400 0.0000
vn 0.9370 -0.3492 0.0000
vn 0.3964 0.6099 0.6861
vn -0.3964 0.6099 0.6861
vn 0.3522 0.7103 -0.6094
vn -0.3522 0.7103 -0.6094
vn -0.3964 0.6099 -0.6861
vn 0.3964 0.6099 -0.6861
vn 0.8537 0.5207 0.0000
vn -0.4270 0.5207 -0.7392
vn -0.8537 0.5207 0.0000
vn -0.7042 0.7100 0.0000
vn 0.7042 0.7100 0.0000
vn 0.7924 0.6100 0.0000
vn -0.4270 -0.5207 0.7392
vn -0.3522 -0.7103 0.6094
vn 0.3522 -0.7103 0.6094
vn 0.4270 -0.5207 0.7392
vn 0.8537 -0.5207 0.0000
vn 0.9370 0.3492 0.0000
vn -0.3964 -0.6099 0.6861
vn 0.3964 -0.6099 0.6861
vn 0.7924 -0.6100 0.0000
vn 0.7042 -0.7100 0.0000
vn 0.8980 0.4400 0.0000
vn -0.7924 0.6100 0.0000
vn 0.4270 0.5207 -0.7392
vn -0.7042 -0.7100 0.0000
vn -0.7924 -0.6100 0.0000
vn 0.4270 -0.5207 -0.7392
vn 0.4686 0.3493 -0.8114
vn 0.4492 0.4403 -0.7774
vn 0.3964 -0.6099 -0.6861
vn -0.3964 -0.6099 -0.6861
vn -0.3522 -0.7103 -0.6094
vn 0.3522 -0.7103 -0.6094
usemtl mtl_wpn_mega
s 1
f 32/1/1 22/2/2 45/3/3 43/4/4
f 60/5/5 57/6/6 14/7/7 3/8/8
f 53/9/9 4/10/10 6/11/11 56/12/12
f 57/6/6 55/13/13 16/14/14 14/7/7
f 27/15/15 30/16/16 26/17/17 29/18/18
f 24/19/19 37/20/20 33/21/21 25/22/22
f 41/23/23 53/9/9 56/12/12 28/24/24
f 37/20/20 2/25/25 5/26/26 33/21/21
f 25/22/22 33/21/21 30/16/16 27/15/15
f 29/18/18 26/17/17 23/27/27 31/28/28
f 47/29/29 51/30/30 46/31/31 48/32/32
f 33/21/21 5/26/26 7/33/33 30/16/16
f 54/34/34 8/35/35 10/36/36 51/37/30
f 30/16/16 7/33/33 9/38/37 26/39/17
f 26/39/17 9/38/37 11/40/38 23/41/27
f 34/42/39 36/43/40 40/44/41 39/45/42
f 45/3/3 39/45/42 15/46/43 13/47/44
f 40/44/41 36/43/40 38/48/45 42/49/46
f 22/2/2 34/42/39 39/45/42 45/3/3
f 40/50/41 42/51/46 19/52/47 17/53/48
f 60/5/5 3/8/8 4/10/10 53/9/9
f 39/45/42 40/50/41 17/53/48 15/46/43
f 43/4/4 45/3/3 13/47/44 1/54/49
f 51/37/30 10/36/36 12/55/50 46/56/31
f 32/1/1 43/4/4 37/20/20 24/19/19
f 28/24/24 56/12/12 54/34/34 21/57/51
f 18/58/52 20/59/53 38/60/45 36/61/40
f 14/7/7 16/14/14 34/42/39 22/2/2
f 11/62/38 12/63/50 31/64/28 23/65/27
f 3/8/8 14/7/7 22/2/2 32/1/1
f 16/14/14 18/58/52 36/61/40 34/42/39
f 10/66/36 29/67/18 31/68/28 12/69/50
f 6/11/11 25/22/22 27/15/15 8/35/35
f 35/70/54 55/13/13 57/6/6 44/71/55
f 8/35/35 27/15/15 29/67/18 10/66/36
f 4/10/10 24/19/19 25/22/22 6/11/11
f 3/8/8 32/1/1 24/19/19 4/10/10
f 44/71/55 57/6/6 60/5/5 52/72/56
f 21/57/51 54/34/34 51/30/30 47/29/29
f 56/12/12 6/11/11 8/35/35 54/34/34
f 43/4/4 1/54/49 2/25/25 37/20/20
f 50/73/57 59/74/58 58/75/59 49/76/60
f 60/5/5 53/9/9 41/23/23 52/72/56
f 49/76/60 58/75/59 55/13/13 35/70/54
f 1/77/49 52/72/56 41/23/23 2/78/25
f 13/79/44 15/80/43 35/70/54 44/71/55
f 17/81/48 19/82/47 50/83/57 49/84/60
f 15/80/43 17/81/48 49/84/60 35/70/54
f 7/85/33 21/57/51 47/86/29 9/87/37
f 9/87/37 47/86/29 48/88/32 11/89/38
f 5/90/26 28/24/24 21/57/51 7/85/33
f 2/78/25 41/23/23 28/24/24 5/90/26
f 55/13/13 58/91/59 18/92/52 16/14/14
f 1/77/49 13/79/44 44/71/55 52/72/56
f 19/93/47 20/94/53 59/95/58 50/96/57
f 58/91/59 59/97/58 20/98/53 18/92/52
f 48/99/32 46/100/31 12/63/50 11/62/38
f 42/101/46 38/102/45 20/94/53 19/93/47
