# Blender v2.79 (sub 0) OBJ File: 'ammo_drops.blend'
# www.blender.org
mtllib Nuke.mtl
o Cube.014_Cube.010
v -1.500000 0.000000 1.000001
v 1.499999 0.000000 1.000000
v -1.500001 1.750000 1.000000
v 1.500000 1.750000 -1.000000
v 1.500000 1.750000 1.000000
v 1.500000 0.000000 -0.999999
v -1.499999 0.000000 -1.000001
v -1.500000 1.750000 -1.000000
v -1.500000 0.000000 1.000001
v -1.500000 0.000000 1.000001
v 1.499999 0.000000 1.000000
v 1.499999 0.000000 1.000000
v -1.500001 1.750000 1.000000
v -1.500001 1.750000 1.000000
v 1.500000 1.750000 1.000000
v 1.500000 1.750000 1.000000
v 1.500000 1.750000 -1.000000
v 1.500000 1.750000 -1.000000
v 1.500000 0.000000 -0.999999
v 1.500000 0.000000 -0.999999
v -1.499999 0.000000 -1.000001
v -1.499999 0.000000 -1.000001
v -1.500000 1.750000 -1.000000
v -1.500000 1.750000 -1.000000
vt 0.574231 0.257568
vt 0.574231 0.343909
vt 0.623053 0.343909
vt 0.623053 0.257568
vt 0.574231 0.257568
vt 0.574231 0.343909
vt 0.501699 0.343909
vt 0.501699 0.257568
vt 0.501699 0.343909
vt 0.574231 0.343909
vt 0.574238 0.441475
vt 0.501699 0.441475
vt 0.578110 0.351517
vt 0.623053 0.351517
vt 0.623053 0.496347
vt 0.578110 0.496347
vt 0.501699 0.257568
vt 0.501699 0.343909
vt 0.574231 0.343909
vt 0.574231 0.257568
vt 0.623053 0.257568
vt 0.623053 0.343909
vt 0.574231 0.343909
vt 0.574231 0.257568
vn -1.0000 0.0000 0.0000
vn 0.0000 0.0000 1.0000
vn 0.0000 1.0000 0.0000
vn 0.0000 -1.0000 0.0000
vn 0.0000 0.0000 -1.0000
vn 1.0000 0.0000 0.0000
usemtl mtl_wpn_mega
s 1
f 10/1/1 13/2/1 23/3/1 22/4/1
f 11/5/2 15/6/2 14/7/2 9/8/2
f 3/9/3 16/10/3 17/11/3 24/12/3
f 1/13/4 21/14/4 19/15/4 12/16/4
f 7/17/5 8/18/5 18/19/5 20/20/5
f 6/21/6 4/22/6 5/23/6 2/24/6
