# Blender v2.79 (sub 0) OBJ File: 'weapon_drops_scaling.blend'
# www.blender.org
mtllib dynamite.mtl
o dynamite_Mesh.003
v 0.039342 17.515982 -0.392480
v 0.344238 17.515982 0.135615
v -0.233620 17.515982 0.117177
v 3.076352 23.152363 4.658097
v 2.918916 22.554285 4.413195
v 2.583889 22.827757 4.831671
v 1.127124 23.454187 3.097772
v 1.601231 23.327978 2.762422
v 1.344479 23.934282 2.782308
v 0.273994 23.320614 0.870471
v 0.680700 22.846535 1.033236
v 0.108413 22.837315 1.204336
v -0.026665 19.538828 0.331048
v 3.295162 17.642187 0.306184
v 2.772426 17.417650 0.540524
v 2.779485 17.416441 -0.026722
v 0.152091 19.870657 0.022804
v 0.023231 19.538828 -0.314766
v 0.288761 19.538828 0.164074
v 1.670092 17.642187 -2.857031
v 1.661558 17.417650 -2.284236
v 1.150442 17.416441 -2.530363
v 0.084879 19.870657 -0.128080
v -0.275458 19.538828 -0.154080
v 0.286472 19.538828 -0.168037
v -1.639217 17.642187 -2.874856
v -1.147428 17.417650 -2.581069
v -1.616138 17.416441 -2.261492
v -0.068546 19.870657 -0.137434
v -0.271167 19.538828 0.161515
v -0.031226 19.538828 -0.330647
v -3.298269 17.642187 0.270669
v -2.824167 17.417650 -0.050883
v -2.732618 17.416441 0.508971
v -0.153592 19.870657 0.004166
v 0.031781 19.538828 0.314021
v -0.288761 19.538824 -0.164073
v -1.670092 17.642187 2.857033
v -1.661558 17.417650 2.284238
v -1.150442 17.416441 2.530364
v -0.084749 19.870657 0.128306
v 0.275458 19.538824 0.154082
v -0.270736 19.538824 0.192367
v 1.883540 17.642187 2.721052
v 1.368017 17.417650 2.471243
v 1.807090 17.416441 2.112032
v 0.080403 19.870657 0.131157
v 0.256058 19.538824 -0.184532
v -0.240349 21.142065 0.127102
v 0.358878 21.043915 0.120158
v 0.042465 21.238813 -0.401493
v -3.750934 -0.000000 0.000000
v -1.875467 -0.000000 -3.248405
v -1.875467 17.735847 -3.248405
v -3.750934 17.735847 0.000000
v 1.875468 -0.000000 -3.248406
v 1.875468 17.735847 -3.248406
v 3.750935 -0.000000 -0.000001
v 3.750935 17.735847 -0.000001
v 1.875469 -0.000000 3.248404
v 1.875469 17.735847 3.248404
v -1.875467 -0.000000 3.248405
v -1.875467 17.735847 3.248405
v 0.000001 17.735847 -0.000000
v 0.000001 -0.000000 -0.000000
vt 0.865565 0.334134
vt 0.862792 0.313956
vt 0.865565 0.313956
vt 0.867869 0.313956
vt 0.865565 0.291071
vt 0.867869 0.291071
vt 0.860246 0.334134
vt 0.862792 0.356369
vt 0.860246 0.356369
vt 0.867869 0.334134
vt 0.865565 0.356369
vt 0.862792 0.334134
vt 0.860246 0.313956
vt 0.862792 0.291071
vt 0.865565 0.259987
vt 0.860246 0.442434
vt 0.862792 0.408109
vt 0.862792 0.442434
vt 0.865137 0.408109
vt 0.867869 0.442434
vt 0.865137 0.442434
vt 0.850023 0.478256
vt 0.847793 0.475239
vt 0.850023 0.472430
vt 0.803550 0.410098
vt 0.787124 0.254764
vt 0.803550 0.254764
vt 0.836401 0.410098
vt 0.819976 0.254764
vt 0.836401 0.254764
vt 0.867869 0.453339
vt 0.865137 0.487663
vt 0.865137 0.453339
vt 0.862792 0.487663
vt 0.860246 0.453339
vt 0.862792 0.453339
vt 0.867869 0.453339
vt 0.865137 0.487663
vt 0.865137 0.453339
vt 0.862792 0.487663
vt 0.860246 0.453339
vt 0.862792 0.453339
vt 0.860246 0.442434
vt 0.862792 0.408109
vt 0.862792 0.442434
vt 0.865137 0.408109
vt 0.867869 0.442434
vt 0.865137 0.442434
vt 0.867869 0.453339
vt 0.865137 0.487663
vt 0.865137 0.453339
vt 0.862792 0.487663
vt 0.860246 0.453339
vt 0.862792 0.453339
vt 0.860246 0.398992
vt 0.862792 0.364668
vt 0.862792 0.398992
vt 0.865137 0.364668
vt 0.867869 0.398992
vt 0.865137 0.398992
vt 0.860246 0.291071
vt 0.862792 0.259987
vt 0.867869 0.259987
vt 0.819976 0.410098
vt 0.852827 0.410098
vt 0.852827 0.254764
vt 0.787124 0.410098
vt 0.770698 0.254764
vt 0.776224 0.455327
vt 0.785259 0.486622
vt 0.767190 0.486622
vt 0.814164 0.486727
vt 0.805130 0.455431
vt 0.823198 0.455431
vt 0.770698 0.410098
vt 0.754273 0.254764
vt 0.814164 0.424136
vt 0.832232 0.424136
vt 0.841267 0.455431
vt 0.832232 0.486727
vt 0.767190 0.424032
vt 0.785259 0.424032
vt 0.758156 0.455327
vt 0.794293 0.455327
vt 0.867869 0.356369
vt 0.860246 0.408109
vt 0.867869 0.408109
vt 0.867869 0.487663
vt 0.860246 0.487663
vt 0.867869 0.487663
vt 0.860246 0.487663
vt 0.860246 0.408109
vt 0.867869 0.408109
vt 0.867869 0.487663
vt 0.860246 0.487663
vt 0.860246 0.364668
vt 0.867869 0.364668
vt 0.860246 0.259987
vt 0.754273 0.410098
vn 0.0437 0.9976 -0.0536
vn 0.9305 -0.3207 -0.1766
vn -0.2783 0.8102 -0.5158
vn -0.8180 -0.2624 0.5119
vn -0.0578 0.2619 -0.9633
vn -0.9216 0.0078 0.3880
vn -0.7954 -0.1807 0.5785
vn 0.5195 -0.8513 -0.0737
vn -0.3325 -0.2132 0.9187
vn 0.7656 0.4943 0.4117
vn 0.6360 -0.5763 -0.5131
vn 0.9068 -0.1582 0.3907
vn -0.0177 -0.0059 -0.9998
vn -0.1299 -0.2577 -0.9575
vn 0.6108 0.7904 0.0458
vn 0.5730 0.8167 0.0678
vn -0.2609 -0.2406 0.9348
vn -0.2503 -0.1911 0.9491
vn 0.7924 0.6100 0.0000
vn 0.3962 -0.6100 0.6862
vn 0.7924 -0.6100 0.0000
vn -0.3962 0.6100 -0.6862
vn 0.3962 -0.6100 -0.6862
vn -0.3962 -0.6100 -0.6862
vn -0.9226 -0.2577 -0.2869
vn 0.2997 0.7904 -0.5342
vn 0.3035 0.8168 -0.4906
vn 0.7371 -0.2405 0.6315
vn 0.7544 -0.1910 0.6280
vn -0.7098 -0.2577 0.6555
vn -0.3129 0.7904 -0.5266
vn -0.2731 0.8168 -0.5082
vn 0.9155 -0.2403 -0.3227
vn 0.9210 -0.1910 -0.3393
vn 0.2941 -0.2577 0.9203
vn -0.6095 0.7904 0.0612
vn -0.5760 0.8168 0.0327
vn 0.0944 -0.2403 -0.9661
vn 0.0817 -0.1910 -0.9781
vn 0.9226 -0.2577 0.2869
vn -0.2994 0.7904 0.5344
vn -0.3036 0.8167 0.4906
vn -0.7371 -0.2405 -0.6315
vn -0.7544 -0.1910 -0.6280
vn 0.6500 -0.2577 -0.7149
vn 0.3576 0.7904 0.4973
vn 0.3164 0.8167 0.4825
vn -0.8839 -0.2407 0.4010
vn -0.8880 -0.1910 0.4183
vn 0.8574 -0.0080 0.5145
vn -0.8664 -0.0030 0.4993
vn 0.3962 0.6100 -0.6862
vn -0.7924 0.6100 0.0000
vn -0.7924 -0.6100 0.0000
vn 0.3962 0.6100 0.6862
vn -0.3962 -0.6100 0.6862
vn 0.0000 -1.0000 0.0000
vn -0.3962 0.6100 0.6862
vn 0.0000 1.0000 0.0000
vn -0.0873 -0.2445 -0.9657
vn -0.9121 -0.2443 -0.3291
vn -0.7411 -0.2443 0.6254
vn 0.2537 -0.2445 0.9359
vn 0.9121 -0.2446 0.3288
vn 0.6835 -0.2446 -0.6877
usemtl mtl_wpn_mega
s 1
f 9/1/1 11/2/2 10/3/3
f 12/4/4 51/5/5 49/6/6
f 7/7/7 5/8/8 6/9/9
f 7/10/7 4/11/10 9/1/1
f 12/4/4 9/1/1 10/3/3
f 4/11/10 8/12/11 9/1/1
f 11/2/2 7/7/7 12/13/4
f 50/14/12 1/15/13 51/5/5
f 16/16/14 17/17/15 14/18/16
f 13/19/17 16/20/14 15/21/18
f 17/17/15 15/21/18 14/18/16
f 4/22/10 6/23/9 5/24/8
f 59/25/19 60/26/20 58/27/21
f 54/28/22 56/29/23 53/30/24
f 22/31/25 23/32/26 20/33/27
f 19/34/28 22/35/25 21/36/29
f 23/32/26 21/36/29 20/33/27
f 28/37/30 29/38/31 26/39/32
f 25/40/33 28/41/30 27/42/34
f 29/38/31 27/42/34 26/39/32
f 34/43/35 35/44/36 32/45/37
f 31/46/38 34/47/35 33/48/39
f 35/44/36 33/48/39 32/45/37
f 40/49/40 41/50/41 38/51/42
f 37/52/43 40/53/40 39/54/44
f 41/50/41 39/54/44 38/51/42
f 46/55/45 47/56/46 44/57/47
f 43/58/48 46/59/45 45/60/49
f 47/56/46 45/60/49 44/57/47
f 49/61/6 2/62/50 50/14/12
f 11/2/2 49/61/6 50/14/12
f 11/2/2 51/5/5 10/3/3
f 49/6/6 1/15/13 3/63/51
f 57/64/52 58/27/21 56/29/23
f 55/65/53 53/30/24 52/66/54
f 61/67/55 62/68/56 60/26/20
f 65/69/57 56/70/23 58/71/21
f 63/72/58 61/73/55 64/74/59
f 63/75/58 52/76/54 62/68/56
f 59/77/19 64/74/59 61/73/55
f 57/78/52 54/79/22 64/74/59
f 54/79/22 55/80/53 64/74/59
f 59/77/19 57/78/52 64/74/59
f 55/80/53 63/72/58 64/74/59
f 62/81/56 52/82/54 65/69/57
f 60/83/20 62/81/56 65/69/57
f 53/84/24 56/70/23 65/69/57
f 52/82/54 53/84/24 65/69/57
f 58/71/21 60/83/20 65/69/57
f 9/1/1 8/12/11 11/2/2
f 12/4/4 10/3/3 51/5/5
f 7/7/7 8/12/11 5/8/8
f 7/10/7 6/85/9 4/11/10
f 12/4/4 7/10/7 9/1/1
f 4/11/10 5/8/8 8/12/11
f 11/2/2 8/12/11 7/7/7
f 50/14/12 2/62/50 1/15/13
f 16/16/14 18/86/60 17/17/15
f 13/19/17 18/87/60 16/20/14
f 17/17/15 13/19/17 15/21/18
f 59/25/19 61/67/55 60/26/20
f 54/28/22 57/64/52 56/29/23
f 22/31/25 24/88/61 23/32/26
f 19/34/28 24/89/61 22/35/25
f 23/32/26 19/34/28 21/36/29
f 28/37/30 30/90/62 29/38/31
f 25/40/33 30/91/62 28/41/30
f 29/38/31 25/40/33 27/42/34
f 34/43/35 36/92/63 35/44/36
f 31/46/38 36/93/63 34/47/35
f 35/44/36 31/46/38 33/48/39
f 40/49/40 42/94/64 41/50/41
f 37/52/43 42/95/64 40/53/40
f 41/50/41 37/52/43 39/54/44
f 46/55/45 48/96/65 47/56/46
f 43/58/48 48/97/65 46/59/45
f 47/56/46 43/58/48 45/60/49
f 49/61/6 3/98/51 2/62/50
f 11/2/2 12/13/4 49/61/6
f 11/2/2 50/14/12 51/5/5
f 49/6/6 51/5/5 1/15/13
f 57/64/52 59/25/19 58/27/21
f 55/65/53 54/28/22 53/30/24
f 61/67/55 63/75/58 62/68/56
f 63/75/58 55/99/53 52/76/54
