# Blender v2.79 (sub 0) OBJ File: 'weapon_drops_scaling.blend'
# www.blender.org
mtllib rocket.mtl
o rocket_Mesh.002
v -1.051208 1.820750 7.082642
v -1.678951 2.908028 15.544637
v 1.051210 1.820746 7.082642
v 1.678949 2.908025 15.544637
v 2.102421 -0.000001 7.082642
v 3.357901 -0.000001 15.544637
v 1.678948 -2.908032 15.544637
v -1.051214 -1.820752 7.082642
v -1.678952 -2.908028 15.544637
v -2.102420 -0.000002 7.082642
v -3.357904 -0.000002 15.544637
v -1.234232 -0.712585 0.000001
v 1.234231 -0.712586 0.000001
v -0.000001 1.425168 0.000001
v 1.051209 -1.820751 7.082642
v -0.000002 -3.965821 0.672631
v 3.434500 1.982908 0.672639
v 0.000000 -0.000003 20.536430
v -3.434500 1.982910 0.672642
vt 0.218024 0.950370
vt 0.209370 0.878286
vt 0.218024 0.878286
vt 0.209370 0.950370
vt 0.200700 0.878286
vt 0.200700 0.950370
vt 0.191995 0.878286
vt 0.235349 0.950370
vt 0.244054 0.950370
vt 0.218057 0.991290
vt 0.235349 0.878286
vt 0.244054 0.878286
vt 0.226679 0.878286
vt 0.213697 0.829787
vt 0.226679 0.950370
vt 0.191995 0.950370
vt 0.196347 0.829405
vt 0.201755 0.786429
vt 0.205954 0.771764
vt 0.210154 0.786429
vt 0.231014 0.829668
vt 0.218970 0.803529
vt 0.242554 0.832930
vt 0.242554 0.796318
vt 0.242554 0.759705
vt 0.218970 0.789106
vt 0.223417 0.761213
vt 0.205954 0.822196
vt 0.242554 0.796318
vt 0.242554 0.759705
vt 0.218970 0.789106
vt 0.218970 0.803529
vt 0.242554 0.832930
vt 0.242554 0.796318
vt 0.218970 0.803529
vt 0.218970 0.789106
vt 0.188492 0.761213
vn -0.4899 0.8487 0.1993
vn 0.4438 0.8961 -0.0116
vn -0.4438 0.8961 -0.0116
vn 0.4899 0.8486 0.1993
vn 0.9979 -0.0637 -0.0116
vn 0.9799 0.0000 0.1993
vn 0.5541 -0.8323 -0.0116
vn -0.4899 -0.8486 0.1993
vn 0.4899 -0.8487 0.1993
vn 0.0000 0.0000 1.0000
vn -0.5541 -0.8323 -0.0116
vn -0.9979 -0.0637 -0.0116
vn 0.0000 0.6434 -0.7655
vn -0.9799 0.0000 0.1993
vn 0.5572 -0.3217 -0.7655
vn -0.5572 -0.3217 -0.7655
vn 0.0000 -0.9031 -0.4294
vn -0.7821 0.4516 -0.4294
vn 0.7821 0.4516 -0.4294
usemtl mtl_wpn_mega
s 1
f 2/1/1 3/2/2 1/3/3
f 4/4/4 5/5/5 3/2/2
f 6/6/6 15/7/7 5/5/5
f 9/8/8 7/9/9 18/10/10
f 7/9/9 8/11/11 15/12/7
f 9/8/8 10/13/12 8/11/11
f 1/3/3 3/2/2 14/14/13
f 6/6/6 4/4/4 18/10/10
f 11/15/14 9/8/8 18/10/10
f 4/4/4 2/1/1 18/10/10
f 7/16/9 6/6/6 18/10/10
f 2/1/1 11/15/14 18/10/10
f 5/5/5 15/7/7 13/17/15
f 14/18/13 13/19/15 12/20/16
f 8/11/11 10/13/12 12/21/16
f 8/22/11 12/23/16 16/24/17
f 13/25/15 15/26/7 16/24/17
f 15/26/7 8/22/11 16/24/17
f 12/20/16 13/19/15 16/27/17
f 19/28/18 14/18/13 12/20/16
f 19/29/18 12/30/16 10/31/12
f 1/32/3 19/29/18 10/31/12
f 14/33/13 19/29/18 1/32/3
f 17/34/19 3/35/2 5/36/5
f 17/34/19 5/36/5 13/25/15
f 13/19/15 14/18/13 17/37/19
f 17/34/19 14/33/13 3/35/2
f 10/13/12 2/1/1 1/3/3
f 2/1/1 4/4/4 3/2/2
f 4/4/4 6/6/6 5/5/5
f 6/6/6 7/16/9 15/7/7
f 7/9/9 9/8/8 8/11/11
f 9/8/8 11/15/14 10/13/12
f 10/13/12 11/15/14 2/1/1
